<?xml version="1.0" encoding="UTF-8" standalone="no"?>
<!-- Created with Inkscape (http://www.inkscape.org/) -->

<svg
   width="42.656544mm"
   height="57.700687mm"
   viewBox="0 0 42.656544 57.700687"
   version="1.1"
   id="svg1"
   xmlns="http://www.w3.org/2000/svg"
   xmlns:svg="http://www.w3.org/2000/svg">
  <defs
     id="defs1" />
  <g
     id="layer1"
     transform="translate(-8.1965172,-7.6366389)">
    <g
       id="g188"
       transform="matrix(0.26458333,0,0,0.26458333,-40.693135,-58.529739)">
		<g
   id="g146">
			<g
   id="g112">
				<g
   id="g109">
					<g
   id="g106">
						<path
   style="fill:#f1d08e"
   d="m 218.506,339.915 c -5.396,-2.824 -14.667,-4.667 -17,3.333 -2,7 5.333,11 12,10.333"
   id="path104" />

						<g
   id="g105">
							<path
   style="fill:#473b34"
   d="m 219.137,338.836 c -5.793,-2.918 -14.369,-4.562 -18.108,2.214 -4.74,8.59 5.07,14.296 12.477,13.781 1.599,-0.111 1.61,-2.612 0,-2.5 -6.186,0.43 -13.919,-3.494 -9.945,-10.695 2.747,-4.977 10.454,-2.586 14.314,-0.642 1.436,0.723 2.702,-1.433 1.262,-2.158 z"
   id="path105" />

						</g>

					</g>

					<g
   id="g108">
						<path
   style="fill:#f1d08e"
   d="m 314.173,338.915 c 5.333,-2.334 13.333,-4.412 15,5 1.284,7.25 -7.333,10.333 -13,9.333"
   id="path106" />

						<g
   id="g107">
							<path
   style="fill:#473b34"
   d="m 314.804,339.994 c 4.608,-1.976 10.7,-3.421 12.765,2.572 2.393,6.945 -5.319,10.333 -11.064,9.477 -1.576,-0.235 -2.254,2.174 -0.664,2.41 6.574,0.98 16.243,-2.61 14.537,-10.87 -0.78,-3.778 -2.737,-6.943 -6.722,-7.738 -3.418,-0.683 -7.025,0.667 -10.114,1.991 -1.477,0.633 -0.203,2.786 1.262,2.158 z"
   id="path107" />

						</g>

					</g>

				</g>

				<g
   id="g111">
					<path
   style="fill:#f1d08e"
   d="m 224.174,303.913 c -5.852,35.021 -28.618,82.099 19,93 19.567,4.479 55.744,6.095 63.614,-18.43 6.59,-20.538 -1.972,-55.308 -4.614,-75.57"
   id="path109" />

					<g
   id="g110">
						<path
   style="fill:#473b34"
   d="m 222.969,303.581 c -4.784,27.939 -26.589,76.95 10.958,91.766 16.403,6.473 37.727,7.906 54.508,2.225 7.836,-2.653 14.505,-7.79 18.19,-15.272 4.563,-9.266 4.166,-21.022 3.572,-31.032 -0.965,-16.282 -4.61,-32.224 -6.771,-48.354 -0.211,-1.573 -2.714,-1.594 -2.5,0 3.123,23.318 10.605,48.15 5.62,71.689 -4.72,22.288 -30.287,24.901 -49.104,23.304 -18.977,-1.611 -38.682,-8.188 -42.095,-29.258 -2.988,-18.449 4.453,-38.085 8.369,-55.877 0.623,-2.829 1.177,-5.671 1.666,-8.525 0.267,-1.579 -2.141,-2.253 -2.413,-0.666 z"
   id="path110" />

					</g>

				</g>

			</g>

			<g
   id="g117">
				<g
   id="g114">
					<path
   style="fill:#ffffff"
   d="m 221.174,318.913 c 3,35 -44,49 -34,90 13,51 78,16 88,58 15,-34 63.179,-20.008 64,-65 0.738,-40.457 -26.001,-47.665 -33,-81 0.939,38.518 -1.75,45.881 -42.75,42.881 -36,-3 -44.918,5.662 -40.25,-43.881"
   id="path112" />

					<g
   id="g113">
						<path
   style="fill:#473b34"
   d="m 219.924,318.913 c 1.338,18.83 -12.209,32.302 -22.64,46.301 -11.14,14.951 -16.19,31.692 -9.496,49.792 5.624,15.206 18.928,22.528 34.039,25.737 14.093,2.993 31.288,2.266 43.171,11.549 4.787,3.74 7.511,9.165 8.972,14.953 0.248,0.984 1.824,1.306 2.284,0.299 6.454,-14.109 19.523,-20.325 33.008,-26.215 12.021,-5.249 23.446,-11.341 28.527,-24.169 6.384,-16.113 1.994,-36.476 -6.148,-51.107 -3.927,-7.056 -8.959,-13.438 -13.369,-20.186 -5.1,-7.804 -8.881,-16.163 -10.892,-25.286 -0.306,-1.388 -2.488,-1.067 -2.455,0.332 0.256,10.922 2.612,28.101 -5.902,36.772 -3.662,3.729 -9.414,4.696 -14.375,5.174 -8.189,0.787 -16.485,-10e-4 -24.658,-0.573 -6.227,-0.436 -12.47,-0.506 -18.697,-0.896 -4.294,-0.269 -8.961,-0.665 -12.612,-3.161 -3.943,-2.695 -4.765,-8.3 -5.168,-12.655 -0.786,-8.494 0.131,-17.202 0.913,-25.659 0.148,-1.605 -2.353,-1.592 -2.5,0 -0.834,9.033 -1.742,18.277 -0.743,27.336 0.497,4.508 1.736,9.193 5.21,12.334 3.056,2.763 7.367,3.517 11.308,3.993 7.006,0.847 14.143,0.71 21.182,1.137 12.568,0.764 30.88,4.292 41.472,-4.852 3.957,-3.416 5.499,-8.82 6.305,-13.78 1.344,-8.266 0.962,-16.834 0.767,-25.168 -0.818,0.11 -1.637,0.222 -2.455,0.332 3.599,16.335 13.483,28.484 22.234,42.261 9.633,15.167 14.456,35.61 8.175,52.99 -4.854,13.428 -18.819,18.919 -30.848,24.19 -12.728,5.578 -24.431,12.468 -30.435,25.596 0.762,0.1 1.522,0.199 2.284,0.299 -8.369,-33.17 -51.26,-20.714 -73.79,-35.982 -16.779,-11.37 -19.05,-35.756 -10.457,-52.701 7.708,-15.199 21.744,-26.29 27.961,-42.368 2.045,-5.289 2.731,-10.982 2.331,-16.616 -0.116,-1.602 -2.617,-1.613 -2.503,-0.003 z"
   id="path113" />

					</g>

				</g>

				<g
   id="g116">
					<g
   id="g115">
						<path
   style="fill:#473b34"
   d="m 204.252,388.275 c -2.956,9.547 -1.843,21.217 7.041,27.344 4.618,3.184 9.518,4.211 14.969,5.102 6.212,1.015 12.443,2.33 15.242,8.636 0.466,1.051 1.997,0.64 2.285,-0.299 1.906,-6.226 2.173,-12.376 -0.725,-18.328 -0.57,0.57 -1.14,1.14 -1.71,1.71 12.874,7.488 28.423,13.008 29.92,30.059 0.089,1.011 1.334,1.752 2.134,0.884 7.398,-8.026 5.876,-17.73 6.354,-27.83 -0.527,0.401 -1.055,0.804 -1.582,1.205 7.461,1.522 12.572,7.37 14.097,14.696 0.159,0.769 1.188,1.175 1.836,0.747 12.78,-8.425 25.271,-20.878 19.137,-37.339 -0.558,-1.497 -2.975,-0.85 -2.41,0.664 5.731,15.381 -6.145,26.708 -17.988,34.517 0.612,0.249 1.224,0.498 1.836,0.747 -1.689,-8.126 -7.597,-14.76 -15.843,-16.442 -0.818,-0.167 -1.542,0.356 -1.582,1.205 -0.439,9.261 1.228,18.631 -5.622,26.063 0.711,0.295 1.423,0.589 2.134,0.884 -1.6,-18.222 -17.25,-24.127 -31.158,-32.217 -1.143,-0.665 -2.24,0.622 -1.71,1.71 2.606,5.354 2.172,10.851 0.472,16.402 0.762,-0.1 1.523,-0.199 2.285,-0.299 -3.821,-8.61 -13.249,-9.054 -21.395,-10.591 -14.159,-2.671 -19.646,-15.513 -15.605,-28.565 0.477,-1.545 -1.936,-2.2 -2.412,-0.665 z"
   id="path114" />

					</g>

				</g>

			</g>

			<g
   id="g122">
				<g
   id="g119">
					<path
   style="fill:#ffffff"
   d="m 268.173,319.915 c -1.667,12.666 -24.001,14 -33.334,14.666 -7.667,0.667 -19.333,0.667 -22.333,9.667 -2.667,-11 0,-38.667 17,-38"
   id="path117" />

					<g
   id="g118">
						<path
   style="fill:#473b34"
   d="m 266.968,319.582 c -2.113,11.944 -20.305,12.854 -29.76,13.578 -9.371,0.717 -21.858,0.4 -25.908,10.755 0.804,0 1.607,0 2.411,0 -2.638,-11.693 -0.408,-36.51 15.794,-36.418 1.612,0.009 1.612,-2.491 0,-2.5 -18.176,-0.103 -21.21,26.265 -18.206,39.582 0.298,1.319 1.998,1.057 2.411,0 2.824,-7.221 11.243,-7.962 17.951,-8.501 4.957,-0.397 9.908,-0.712 14.836,-1.408 8.709,-1.23 21.073,-4.207 22.88,-14.424 0.281,-1.576 -2.128,-2.249 -2.409,-0.664 z"
   id="path118" />

					</g>

				</g>

				<g
   id="g121">
					<path
   style="fill:#ffffff"
   d="m 267.173,318.248 c 0.333,11.667 16,13.333 24.333,15 8,1.333 22.667,2.333 24.667,11.333 6,-8.333 7.667,-20 -3.333,-27.333"
   id="path119" />

					<g
   id="g120">
						<path
   style="fill:#473b34"
   d="m 265.923,318.248 c 0.724,9.823 10.16,13.103 18.508,14.911 8.746,1.896 27.537,1.224 30.537,11.754 0.311,1.096 1.685,1.17 2.284,0.299 6.872,-9.988 6.497,-21.697 -3.781,-29.043 -1.314,-0.939 -2.561,1.23 -1.262,2.158 9.22,6.589 8.878,16.912 2.885,25.623 0.762,0.1 1.522,0.199 2.284,0.299 -2.644,-9.281 -14.501,-10.559 -22.534,-11.745 -8.918,-1.318 -25.566,-2.655 -26.421,-14.256 -0.118,-1.598 -2.618,-1.61 -2.5,0 z"
   id="path120" />

					</g>

				</g>

			</g>

			<g
   id="g145">
				<g
   id="g125">
					<g
   id="g123">
						<path
   style="fill:#dc8ea0"
   d="m 236.25,349.435 c -3.492,-0.047 -6.578,0.309 -6.703,4.343 -0.105,3.361 4.068,3.63 6.301,3.653 1.953,0.02 6.65,-0.492 6.727,-3.968 0.072,-3.36 -2.366,-3.998 -6.325,-4.028"
   id="path122" />

					</g>

					<g
   id="g124">
						<path
   style="fill:#dc8ea0"
   d="m 292.251,349.435 c -3.492,-0.047 -6.578,0.309 -6.704,4.343 -0.105,3.361 4.069,3.63 6.302,3.653 1.952,0.02 6.649,-0.492 6.725,-3.968 0.074,-3.36 -2.364,-3.998 -6.323,-4.028"
   id="path123" />

					</g>

				</g>

				<g
   id="g137">
					<g
   id="g129">
						<g
   id="g127">
							<path
   style="fill:#473b34"
   d="m 250.321,365.124 c 8.923,0.801 17.839,-0.103 26.753,-0.103 2.43,18.397 -28.98,21.505 -26.753,0.103"
   id="path125" />

							<g
   id="g126">
								<path
   style="fill:#473b34"
   d="m 250.321,366.999 c 8.919,0.684 17.826,-0.042 26.753,-0.103 -0.625,-0.625 -1.25,-1.25 -1.875,-1.875 0.746,7.297 -4.236,12.535 -11.425,13.102 -7.977,0.628 -12.158,-5.635 -11.578,-12.999 0.191,-2.412 -3.561,-2.395 -3.75,0 -0.761,9.652 5.417,17.061 15.328,16.749 9.106,-0.288 16.105,-7.746 15.175,-16.852 -0.103,-1.011 -0.774,-1.883 -1.875,-1.875 -8.927,0.061 -17.834,0.786 -26.753,0.103 -2.413,-0.185 -2.395,3.566 0,3.75 z"
   id="path126" />

							</g>

						</g>

						<g
   id="g128">
							<path
   style="fill:#c54260"
   d="m 253.612,376.415 c 4.979,5.043 14.229,4.599 19.55,-0.21 -5.932,-3.448 -14.476,-4.502 -19.55,0.21 z"
   id="path127" />

						</g>

					</g>

					<g
   id="g134">
						<g
   id="g131">
							<path
   style="fill:#ffffff"
   d="m 261.84,355.581 c -26.168,-12.003 -28.299,16.113 -36.668,28.667 15.799,-4.026 38.99,-3.415 38.668,-25.667"
   id="path129" />

							<g
   id="g130">
								<path
   style="fill:#473b34"
   d="m 262.471,354.501 c -9.283,-4.079 -18.683,-4.529 -25.487,3.897 -6,7.431 -7.767,17.271 -12.891,25.218 -0.618,0.958 0.393,2.088 1.412,1.836 16.542,-4.083 39.429,-4.604 39.585,-26.872 0.012,-1.612 -2.488,-1.611 -2.5,0 -0.146,20.716 -22.596,20.722 -37.75,24.462 0.471,0.612 0.941,1.224 1.412,1.836 4.272,-6.625 6.353,-14.397 10.222,-21.249 5.648,-10.002 14.572,-11.435 24.736,-6.97 1.46,0.643 2.734,-1.51 1.261,-2.158 z"
   id="path130" />

							</g>

						</g>

						<g
   id="g133">
							<path
   style="fill:#ffffff"
   d="m 266.176,355.581 c 26.168,-12.003 28.299,16.113 36.667,28.667 -15.799,-4.026 -38.989,-3.415 -38.667,-25.667"
   id="path131" />

							<g
   id="g132">
								<path
   style="fill:#473b34"
   d="m 266.807,356.66 c 10.349,-4.547 18.873,-2.91 24.736,6.97 4.022,6.778 5.94,14.611 10.221,21.249 0.471,-0.612 0.94,-1.224 1.411,-1.836 -15.154,-3.74 -37.604,-3.747 -37.749,-24.462 -0.012,-1.611 -2.512,-1.612 -2.5,0 0.156,22.268 23.043,22.789 39.585,26.872 1.018,0.252 2.029,-0.878 1.411,-1.836 -5.123,-7.946 -6.891,-17.787 -12.891,-25.218 -6.804,-8.427 -16.203,-7.977 -25.486,-3.897 -1.472,0.647 -0.199,2.8 1.262,2.158 z"
   id="path132" />

							</g>

						</g>

					</g>

					<g
   id="g136">
						<path
   style="fill:#c54260"
   d="m 265.004,344.522 c -12.985,-1.541 -13.71,13.39 -0.646,13.754 11.708,0.13 13.734,-13.057 0.646,-13.754"
   id="path134" />

						<g
   id="g135">
							<path
   style="fill:#473b34"
   d="m 265.004,343.272 c -4.743,-0.463 -10.654,1.32 -11.284,6.828 -0.617,5.39 4.413,8.883 9.268,9.33 4.996,0.46 11.211,-1.582 12.174,-7.19 1.024,-5.962 -5.335,-8.615 -10.158,-8.968 -1.609,-0.118 -1.598,2.383 0,2.5 3.38,0.248 8.429,1.834 7.679,6.197 -0.752,4.382 -6.401,5.412 -10.008,4.917 -3.366,-0.463 -6.677,-2.693 -6.5,-6.397 0.206,-4.299 5.585,-5.033 8.829,-4.717 1.605,0.156 1.59,-2.345 0,-2.5 z"
   id="path135" />

						</g>

					</g>

				</g>

				<g
   id="g144">
					<g
   id="g140">
						<g
   id="g138">
							<path
   style="fill:#473b34"
   d="m 247.799,338.657 c -6.313,-1.111 -8.478,9.922 -0.314,9.921 5.69,0 6.676,-9.419 0.314,-9.921"
   id="path137" />

						</g>

						<g
   id="g139">
							<path
   style="fill:#473b34"
   d="m 280.799,338.657 c -6.312,-1.111 -8.477,9.922 -0.314,9.921 5.691,0 6.676,-9.419 0.314,-9.921"
   id="path138" />

						</g>

					</g>

					<g
   id="g143">
						<g
   id="g141">
							<path
   style="fill:#ffffff"
   d="m 248.362,341.102 c -1.895,-0.334 -2.543,2.977 -0.095,2.976 1.707,0 2.003,-2.825 0.095,-2.976"
   id="path140" />

						</g>

						<g
   id="g142">
							<path
   style="fill:#ffffff"
   d="m 281.363,341.102 c -1.895,-0.334 -2.543,2.977 -0.095,2.976 1.707,0 2.003,-2.825 0.095,-2.976"
   id="path141" />

						</g>

					</g>

				</g>

			</g>

		</g>

		<g
   id="g187">
			<g
   id="g148">
				<path
   style="fill:#c54260"
   d="m 220.174,298.913 c 2,-63.001 115.665,-64.002 114,0 -6,-13 -28,-19 -26,0"
   id="path146" />

				<g
   id="g147">
					<path
   style="fill:#473b34"
   d="m 221.424,298.913 c 2.488,-60.747 112.563,-62.711 111.5,0 0.776,-0.21 1.553,-0.421 2.329,-0.631 -3.381,-6.827 -10.237,-11.968 -17.891,-12.696 -8.034,-0.765 -10.978,6.525 -10.438,13.327 0.127,1.596 2.628,1.608 2.5,0 -0.555,-6.998 2.555,-12.073 10.075,-10.492 5.896,1.238 10.98,5.842 13.596,11.123 0.573,1.158 2.31,0.55 2.329,-0.631 1.063,-62.695 -105.615,-65.075 -115.824,-6.845 -0.396,2.26 -0.582,4.555 -0.676,6.845 -0.066,1.612 2.434,1.606 2.5,0 z"
   id="path147" />

				</g>

			</g>

			<g
   id="g178">
				<g
   id="g150">
					<path
   style="fill:#ffffff"
   d="m 257.174,295.652 c -35.088,0.151 -43,-4.508 -46,8.262 -4,19.534 12.164,14.525 59,14.275 37.385,-0.198 52,5.259 48,-12.021 -4,-15.024 -4.168,-10.14 -61,-10.516"
   id="path148" />

					<g
   id="g149">
						<path
   style="fill:#473b34"
   d="m 257.174,294.402 c -10.793,0.022 -21.577,-0.786 -32.363,-0.7 -4.379,0.034 -9.455,0.378 -12.368,4.097 -5.419,6.916 -4.322,18.33 4.613,21.061 6.728,2.057 14.512,1.393 21.428,1.251 12.883,-0.263 25.754,-0.776 38.642,-0.647 10.303,0.103 20.691,1.098 30.987,0.504 4.072,-0.234 9.563,-0.982 11.288,-5.334 2.409,-6.075 -0.794,-17.45 -7.516,-19.689 -4.95,-1.649 -10.906,-1.044 -16.015,-0.965 -12.9,0.197 -25.79,0.495 -38.696,0.422 -1.612,-0.009 -1.611,2.491 0,2.5 11.943,0.067 23.88,-0.129 35.82,-0.37 5.597,-0.113 11.585,-0.629 17.11,0.526 6.431,1.345 10.858,15.252 4.935,18.867 -2.455,1.498 -5.867,1.51 -8.635,1.627 -4.771,0.204 -9.571,-0.052 -14.341,-0.209 -13.38,-0.443 -26.731,-0.439 -40.115,-0.091 -9.445,0.244 -18.99,0.886 -28.427,0.163 -4.78,-0.365 -10.891,-1.37 -11.613,-7.069 -0.798,-6.3 1.639,-12.74 8.258,-13.848 4.352,-0.728 9.012,-0.273 13.391,-0.114 7.872,0.285 15.737,0.533 23.616,0.518 1.614,-0.003 1.614,-2.503 10e-4,-2.5 z"
   id="path149" />

					</g>

				</g>

				<g
   id="g177">
					<g
   id="g152">
						<g
   id="g151">
							<path
   style="fill:#473b34"
   d="m 215.404,306.692 c 0.751,1.548 1.249,3.202 2,4.75 0.492,1.016 2.001,0.128 1.511,-0.883 -0.751,-1.548 -1.249,-3.202 -2,-4.75 -0.492,-1.016 -2.001,-0.128 -1.511,0.883 z"
   id="path150" />

						</g>

					</g>

					<g
   id="g154">
						<g
   id="g153">
							<path
   style="fill:#473b34"
   d="m 225.566,299.518 c -0.475,1.425 -0.948,2.852 -1.5,4.25 -0.415,1.051 1.278,1.502 1.688,0.465 0.552,-1.397 1.025,-2.824 1.5,-4.25 0.357,-1.073 -1.333,-1.53 -1.688,-0.465 z"
   id="path152" />

						</g>

					</g>

					<g
   id="g156">
						<g
   id="g155">
							<path
   style="fill:#473b34"
   d="m 229.154,307.442 c 0.922,1.625 1.758,3.286 2.5,5 0.447,1.033 1.954,0.142 1.511,-0.883 -0.741,-1.715 -1.578,-3.376 -2.5,-5 -0.557,-0.981 -2.069,-0.099 -1.511,0.883 z"
   id="path154" />

						</g>

					</g>

					<g
   id="g158">
						<g
   id="g157">
							<path
   style="fill:#473b34"
   d="m 240.566,302.018 c -0.452,1.85 -0.774,3.729 -1.5,5.5 -0.428,1.044 1.266,1.494 1.688,0.465 0.726,-1.77 1.048,-3.649 1.5,-5.5 0.267,-1.096 -1.421,-1.561 -1.688,-0.465 z"
   id="path156" />

						</g>

					</g>

					<g
   id="g160">
						<g
   id="g159">
							<path
   style="fill:#473b34"
   d="m 245.904,307.442 c 1.197,1.784 1.551,3.965 2.75,5.75 0.625,0.932 2.142,0.057 1.511,-0.883 -1.197,-1.784 -1.551,-3.965 -2.75,-5.75 -0.625,-0.931 -2.142,-0.056 -1.511,0.883 z"
   id="path158" />

						</g>

					</g>

					<g
   id="g162">
						<g
   id="g161">
							<path
   style="fill:#473b34"
   d="m 255.816,299.768 c -0.501,1.416 -1.349,2.69 -2.275,3.863 -0.69,0.876 0.539,2.123 1.238,1.238 1.125,-1.425 2.115,-2.915 2.725,-4.637 0.376,-1.065 -1.314,-1.521 -1.688,-0.464 z"
   id="path160" />

						</g>

					</g>

					<g
   id="g164">
						<g
   id="g163">
							<path
   style="fill:#473b34"
   d="m 260.404,308.192 c 0.718,1.435 1.433,2.87 2.25,4.25 0.575,0.97 2.088,0.09 1.512,-0.883 -0.817,-1.381 -1.533,-2.816 -2.25,-4.25 -0.505,-1.01 -2.015,-0.123 -1.512,0.883 z"
   id="path162" />

						</g>

					</g>

					<g
   id="g166">
						<g
   id="g165">
							<path
   style="fill:#473b34"
   d="m 271.566,300.018 c -0.259,1.435 -0.741,2.814 -1,4.25 -0.198,1.103 1.487,1.574 1.688,0.465 0.259,-1.435 0.741,-2.814 1,-4.25 0.198,-1.103 -1.488,-1.574 -1.688,-0.465 z"
   id="path164" />

						</g>

					</g>

					<g
   id="g168">
						<g
   id="g167">
							<path
   style="fill:#473b34"
   d="m 277.535,307 c -0.052,1.74 -0.731,3.366 -1.219,5.018 -0.32,1.085 1.369,1.545 1.688,0.465 0.534,-1.813 1.225,-3.571 1.281,-5.482 0.033,-1.129 -1.717,-1.126 -1.75,-10e-4 z"
   id="path166" />

						</g>

					</g>

					<g
   id="g170">
						<g
   id="g169">
							<path
   style="fill:#473b34"
   d="m 283.654,301.692 c 1.208,1.708 2.29,3.545 3.887,4.928 0.85,0.734 2.093,-0.498 1.238,-1.238 -1.489,-1.288 -2.488,-2.982 -3.613,-4.572 -0.647,-0.914 -2.166,-0.042 -1.512,0.882 z"
   id="path168" />

						</g>

					</g>

					<g
   id="g172">
						<g
   id="g171">
							<path
   style="fill:#473b34"
   d="m 295.404,307.309 c -1.168,1.655 -2.186,3.392 -3,5.25 -0.447,1.023 1.06,1.915 1.512,0.883 0.813,-1.857 1.832,-3.594 3,-5.25 0.651,-0.925 -0.867,-1.797 -1.512,-0.883 z"
   id="path170" />

						</g>

					</g>

					<g
   id="g174">
						<g
   id="g173">
							<path
   style="fill:#473b34"
   d="m 300.654,300.192 c 1.155,1.622 2.256,3.274 3.25,5 0.564,0.978 2.076,0.097 1.512,-0.883 -0.995,-1.726 -2.096,-3.378 -3.25,-5 -0.649,-0.911 -2.167,-0.039 -1.512,0.883 z"
   id="path172" />

						</g>

					</g>

					<g
   id="g176">
						<g
   id="g175">
							<path
   style="fill:#473b34"
   d="m 310.404,306.309 c -1.02,1.997 -2.265,3.863 -3.088,5.959 -0.413,1.052 1.279,1.503 1.688,0.465 0.765,-1.946 1.963,-3.685 2.912,-5.541 0.511,-1.002 -0.999,-1.888 -1.512,-0.883 z"
   id="path174" />

						</g>

					</g>

				</g>

			</g>

			<g
   id="g186">
				<g
   id="g180">
					<path
   style="fill:#ffffff"
   d="m 332.857,294.128 c -12.851,2.783 -8.982,22.156 5.988,16.168 10.18,-4.191 6.494,-19.717 -5.988,-16.168"
   id="path178" />

					<g
   id="g179">
						<path
   style="fill:#473b34"
   d="m 332.525,292.923 c -5.366,1.311 -9.487,5.966 -8.556,11.72 0.906,5.591 6.039,8.813 11.529,7.877 5.996,-1.021 11.517,-5.605 10.345,-12.25 -1.154,-6.549 -7.371,-8.87 -13.318,-7.347 -1.562,0.399 -0.898,2.81 0.664,2.41 4.676,-1.197 9.648,0.461 10.26,5.798 0.609,5.309 -4.271,8.467 -8.955,9.012 -4.128,0.48 -7.677,-2.159 -8.12,-6.318 -0.468,-4.383 2.835,-7.518 6.815,-8.491 1.565,-0.383 0.901,-2.793 -0.664,-2.411 z"
   id="path179" />

					</g>

				</g>

				<g
   id="g185">
					<g
   id="g182">
						<g
   id="g181">
							<path
   style="fill:#473b34"
   d="m 330.654,301.692 c 0.792,1.509 2.072,2.624 3.137,3.928 0.715,0.874 1.945,-0.372 1.238,-1.238 -0.972,-1.189 -2.142,-2.197 -2.863,-3.572 -0.525,-1.001 -2.036,-0.116 -1.512,0.882 z"
   id="path180" />

						</g>

					</g>

					<g
   id="g184">
						<g
   id="g183">
							<path
   style="fill:#473b34"
   d="m 337.066,298.483 c 0.206,1.33 0.219,2.675 0.219,4.018 0,1.129 1.75,1.129 1.75,0 -0.001,-1.505 -0.05,-2.993 -0.281,-4.482 -0.173,-1.113 -1.859,-0.64 -1.688,0.464 z"
   id="path182" />

						</g>

					</g>

				</g>

			</g>

		</g>

	</g>
  </g>
</svg>
