<?xml version="1.0" encoding="utf-8"?>
<!-- Generator: Adobe Illustrator 24.3.0, SVG Export Plug-In . SVG Version: 6.00 Build 0)  -->
<svg version="1.1" xmlns="http://www.w3.org/2000/svg" xmlns:xlink="http://www.w3.org/1999/xlink" x="0px" y="0px"
	 viewBox="0 0 491.87 497.74" style="enable-background:new 0 0 491.87 497.74;" xml:space="preserve">
<style type="text/css">
	.st0{display:none;}
	.st1{display:inline;fill:#565553;}
	.st2{fill:#FFFFFF;stroke:#FFFFFF;stroke-width:12;}
	.st3{fill:#BFBFBF;}
	.st4{fill:#D51130;}
	.st5{fill:#FFFFFF;}
	.st6{fill:#B3B3B3;}
	.st7{fill:#808080;}
	.st8{fill:#F08590;}
</style>
<g id="Layer_3" class="st0">
	<rect x="-113.72" y="-120.98" class="st1" width="777" height="756"/>
</g>
<g id="white_stuff">
	<g>
		<path class="st2" d="M149.53,466.36c28.42,13.3,157.69,13.39,185.97,0.25c78.4-36.43,132.97-117.64,132.97-211.98
			c0-128.37-101.05-232.44-225.69-232.44c-124.64,0-225.69,104.07-225.69,232.44C17.09,344.84,74.08,431.06,149.53,466.36z"/>
		<path class="st2" d="M156.38,461.36c28.42,13.3,157.69,13.39,185.97,0.25c78.4-36.43,132.97-117.64,132.97-211.98
			c0-128.37-101.05-232.44-225.69-232.44c-124.64,0-225.69,104.07-225.69,232.44C23.95,343.75,78.27,424.81,156.38,461.36z"/>
	</g>
	<path class="st2" d="M437.42,477.58c9.35,0,17.01-6.48,17.01-14.4v-54.17c0-7.92-7.65-14.4-17.01-14.4H45.44
		c-9.35,0-17.01,6.48-16.01,13.4v54.17c-1,8.92,6.65,15.4,16.01,15.4H437.42z"/>
	<path class="st2" d="M444.42,472.76c9.35,0,17.01-6.48,17.01-14.4v-54.17c0-7.92-7.65-14.4-17.01-14.4H52.44
		c-9.35,0-17.01,6.48-17.01,14.4v54.17c0,7.92,7.65,14.4,17.01,14.4H444.42z"/>
</g>
<g id="Layer_1">
	<path class="st3" d="M735.03,531.52"/>
	<path d="M437.42,477.58c9.35,0,17.01-6.48,17.01-14.4v-54.17c0-7.92-7.65-14.4-17.01-14.4H45.44c-9.35,0-17.01,6.48-16.01,13.4
		v54.17c-1,8.92,6.65,15.4,16.01,15.4H437.42z"/>
	<path d="M149.53,466.36c28.42,13.3,157.69,13.39,185.97,0.25c78.4-36.43,132.97-117.64,132.97-211.98
		c0-128.37-101.05-232.44-225.69-232.44c-124.64,0-225.69,104.07-225.69,232.44C17.09,344.84,74.08,431.06,149.53,466.36z"/>
	<path class="st4" d="M444.42,472.76c9.35,0,17.01-6.48,17.01-14.4v-54.17c0-7.92-7.65-14.4-17.01-14.4H52.44
		c-9.35,0-17.01,6.48-17.01,14.4v54.17c0,7.92,7.65,14.4,17.01,14.4H444.42z"/>
	<path class="st4" d="M156.38,461.36c28.42,13.3,157.69,13.39,185.97,0.25c78.4-36.43,132.97-117.64,132.97-211.98
		c0-128.37-101.05-232.44-225.69-232.44c-124.64,0-225.69,104.07-225.69,232.44C23.95,343.75,78.27,424.81,156.38,461.36z"/>
	<path d="M354.73,154.04L321.11,283.6h-0.82l-33.21-129.56H218.2h-16.82h-26.64V89.26H93.56v64.78H57.48v50.02h36.08v101.68
		c0,58.22,38.13,63.55,72.57,63.55c17.22,0,35.67-2.46,52.07-2.46v-61.5c-6.15,0.82-12.3,1.23-18.45,1.23
		c-20.5,0-25.01-8.61-25.01-28.29v-74.21h43.03l53.32,162.77h95.94l70.52-212.79H354.73z"/>
	<path d="M86.96,427.12c-0.25-2.4-1.12-4.34-2.74-5.6c-1.5-1.26-3.62-1.94-6.24-1.94c-9.48,0-10.86,7.54-10.86,14.74
		c0,7.2,1.37,14.63,10.86,14.63c5.37,0,9.11-4,9.61-8.69h23.58c-0.15,1.01-0.34,1.99-0.58,2.94c-3.54,14.27-16.74,22.2-33.12,22.2
		c-19.47,0-35.06-12.34-35.06-31.08c0-18.74,15.6-31.2,35.06-31.2c16.97,0,31.45,7.66,32.95,24H86.96z"/>
	<path d="M116.39,389.79h24.71v26.11h0.25c4.24-4.16,9.73-7.18,20.21-7.18c11.61,0,22.21,5.93,22.21,18.3v37.03h-24.71v-28.29
		c0-6.24-0.87-10.61-8.11-10.61c-4.24,0-9.86,1.77-9.86,10.4v28.5h-24.71V389.79z"/>
	<path d="M266.39,404.61h24.71v59.31h-24.71V404.61z M291.09,398.2h-24.71v-15.88h24.71V398.2z"/>
	<path d="M224.84,419.57c-9.36,0-10.61,8.34-10.61,14.63c0,6.29,1.25,14.74,10.61,14.74c9.36,0,10.61-8.46,10.61-14.74
		C235.44,427.92,234.19,419.57,224.84,419.57z M224.84,465.4c-24.33,0-35.31-14.74-35.31-31.2c0-16.46,10.98-31.08,35.31-31.08
		c24.33,0,35.31,14.63,35.31,31.08C260.15,450.66,249.17,465.4,224.84,465.4z"/>
	<path d="M340.75,427.12c-0.25-2.4-1.12-4.34-2.74-5.6c-1.5-1.26-3.62-1.94-6.24-1.94c-9.48,0-10.86,7.54-10.86,14.74
		c0,7.2,1.37,14.63,10.86,14.63c5.37,0,9.11-4,9.61-8.69h23.58c-2.37,16.12-16.22,25.14-33.69,25.14
		c-19.47,0-35.07-12.34-35.07-31.08c0-18.74,15.6-31.2,35.07-31.2c16.97,0,31.45,7.66,32.94,24H340.75z"/>
	<path d="M418.74,427.57c0-5.49-4.49-9.94-10.86-9.94c-7.36,0-11.6,3.54-12.73,9.94H418.74z M395.03,439.35
		c0.62,6.74,4.87,11.54,12.6,11.54c3.99,0,8.36-1.37,10.36-4.23h23.08c-4.99,12.8-18.59,18.74-33.32,18.74
		c-20.71,0-36.31-11.2-36.31-30.97c0-17.25,13.73-31.31,34.19-31.31c25.71,0,36.81,13.14,36.81,36.23H395.03z"/>
	<path class="st5" d="M359.55,148.4l-33.62,129.56h-0.82L291.9,148.4h-68.88h-16.82h-26.64V83.62H98.39v64.78H62.31v50.02h36.08
		V300.1c0,58.22,38.13,63.55,72.57,63.55c17.22,0,35.67-2.46,52.07-2.46v-61.5c-6.15,0.82-12.3,1.23-18.45,1.23
		c-20.5,0-25.01-8.61-25.01-28.29v-74.21h43.03l53.32,162.77h95.94l70.52-212.79H359.55z"/>
	<path class="st5" d="M91.78,420.91c-0.25-2.4-1.12-4.34-2.75-5.6c-1.5-1.26-3.62-1.94-6.24-1.94c-9.48,0-10.86,7.54-10.86,14.74
		s1.37,14.63,10.86,14.63c5.37,0,9.11-4,9.61-8.68h23.58c-0.15,1.01-0.34,1.99-0.58,2.94c-3.54,14.27-16.74,22.2-33.12,22.2
		c-19.47,0-35.06-12.34-35.06-31.08c0-18.74,15.6-31.2,35.06-31.2c16.97,0,31.45,7.66,32.94,24H91.78z"/>
	<path class="st5" d="M121.22,376.11h24.71v28.69h0.25c4.24-4.57,9.73-7.89,20.21-7.89c11.61,0,22.21,6.51,22.21,20.11v40.68H163.9
		v-31.08c0-6.86-0.87-11.66-8.11-11.66c-4.24,0-9.86,1.94-9.86,11.43v31.31h-24.71V376.11z"/>
	<path class="st5" d="M271.21,398.4h24.71v59.31h-24.71V398.4z M295.92,392h-24.71v-15.88h24.71V392z"/>
	<path class="st5" d="M229.66,413.37c-9.36,0-10.61,8.34-10.61,14.63c0,6.29,1.25,14.74,10.61,14.74c9.36,0,10.61-8.45,10.61-14.74
		C240.27,421.71,239.02,413.37,229.66,413.37z M229.66,459.2c-24.33,0-35.31-14.74-35.31-31.2c0-16.46,10.98-31.08,35.31-31.08
		s35.31,14.63,35.31,31.08C264.98,444.45,254,459.2,229.66,459.2z"/>
	<path class="st5" d="M345.58,420.91c-0.25-2.4-1.12-4.34-2.74-5.6c-1.5-1.26-3.62-1.94-6.24-1.94c-9.48,0-10.86,7.54-10.86,14.74
		s1.37,14.63,10.86,14.63c5.37,0,9.11-4,9.61-8.68h23.58c-2.37,16.11-16.22,25.14-33.69,25.14c-19.47,0-35.07-12.34-35.07-31.08
		c0-18.74,15.6-31.2,35.07-31.2c16.97,0,31.45,7.66,32.94,24H345.58z"/>
	<path class="st5" d="M423.57,421.37c0-5.49-4.49-9.94-10.86-9.94c-7.36,0-11.6,3.54-12.73,9.94H423.57z M399.86,433.14
		c0.62,6.74,4.87,11.54,12.6,11.54c3.99,0,8.36-1.37,10.36-4.23h23.09c-4.99,12.8-18.59,18.74-33.32,18.74
		c-20.71,0-36.31-11.2-36.31-30.97c0-17.26,13.73-31.31,34.19-31.31c25.71,0,36.81,13.14,36.81,36.23H399.86z"/>
	<polygon class="st6" points="98.39,83.62 106.24,88.97 106.24,155.12 98.39,148.4 	"/>
	<line class="st7" x1="62.31" y1="148.4" x2="67.31" y2="155.12"/>
	<polygon class="st6" points="62.31,148.4 70.16,152.95 70.16,198.35 62.31,198.42 	"/>
	<polygon class="st3" points="98.39,203.18 106.24,190.46 106.24,318.49 98.64,308 	"/>
	<polygon class="st6" points="62.31,198.6 66.86,190.46 106.24,190.46 106.24,198.35 	"/>
	<polygon class="st6" points="179.51,198.41 183.97,190.53 228.43,190.56 223.91,198.44 	"/>
	<polygon class="st6" points="220.23,190.48 228.43,190.56 285.15,361.2 275.91,361.19 	"/>
	<polygon class="st6" points="275.94,361.2 282.27,353.06 365.99,353.09 371.85,361.19 	"/>
	<polygon class="st6" points="359.55,148.4 366.13,155.89 331.42,287.95 325.93,277.96 	"/>
	<path class="st6" d="M98.39,198.42V300.1c0,58.22,38.13,63.55,72.57,63.55c17.22,0,33.01,0,52.07-2.46l-7.04-7.1
		c-8.42,1.19-54.58,8.01-87.31-5.91c-26.67-11.34-22.44-55.88-22.44-75.55v-74.21H98.39z"/>
	<path class="st6" d="M62.43,401.97c-4.76,3.79-12.64,13.77-12.47,26.08c0.12,8.9,4.36,16.72,11.34,21.86
		c19.82,14.59,44.14,2.35,44.14,2.35s-6.76,6.93-23.14,6.93c-20.49,0-34.74-12.35-35.06-31.08
		C46.92,409.64,62.43,401.97,62.43,401.97z"/>
	<path class="st6" d="M73.51,418.63c0,0,2.3-8.05,9.1-8.05c10.04,0,11.24,7.68,11.24,7.68l17.69-0.04l3.7,2.68H91.78
		c0,0-0.08-7.2-8.54-7.53C75.6,413.08,73.51,418.63,73.51,418.63z"/>
	<polygon class="st6" points="121.22,376.09 124.22,378.75 124.22,455.39 142.84,455.39 145.93,458.4 121.22,458.4 	"/>
	<path class="st6" d="M147.69,418.98c0,0,1.04-6.38,7.23-6.38c5.73,0,11.14,1.54,11.28,10.85c0.08,5.66,0.05,31.31,0.05,31.31h19.38
		l2.98,2.95H163.9l-0.02-32.64c0,0,0.78-11-8.97-10.08C149.37,415.52,147.69,418.98,147.69,418.98z"/>
	<path class="st6" d="M316.16,401.97c-4.76,3.79-12.64,13.77-12.47,26.08c0.12,8.9,4.36,16.72,11.34,21.86
		c19.82,14.59,44.14,2.35,44.14,2.35s-6.76,6.93-23.14,6.93c-20.48,0-34.74-12.35-35.06-31.08
		C300.65,409.64,316.16,401.97,316.16,401.97z"/>
	<path class="st6" d="M327.25,418.63c0,0,2.3-8.05,9.1-8.05c10.04,0,11.24,7.68,11.24,7.68l17.69-0.04l3.7,2.68h-23.46
		c0,0-0.08-7.2-8.54-7.53C329.33,413.08,327.25,418.63,327.25,418.63z"/>
	<path class="st6" d="M392.85,401.02c-4.76,3.79-14.02,14.73-13.85,27.04c0.12,8.9,3.87,16.73,10.78,21.98
		c17.98,13.67,44.7,3.69,44.7,3.69s-6.76,5.46-23.14,5.46c-20.48,0-35.06-11.43-35.06-31.08
		C376.27,408.72,392.85,401.02,392.85,401.02z"/>
	<path class="st6" d="M404.05,413.97c0,0,2.21-5.15,10.49-5.14c11.41,0.01,12.02,12.63,12.02,12.63l-3.21-0.11c0,0,0-9.45-9.74-9.79
		C406.36,411.31,404.05,413.97,404.05,413.97z"/>
	<polygon class="st6" points="402.21,430.28 399.86,433.04 447.28,433.04 443.44,430.28 	"/>
	<path class="st3" d="M418.58,475.97"/>
	<polygon class="st6" points="271.21,398.4 274.24,401.42 274.24,454.58 292.89,454.69 295.92,457.71 271.21,457.71 	"/>
	<polygon class="st6" points="271.21,376.11 273.55,379.13 273.55,388.97 292.2,389.08 295.92,392.1 271.21,392.1 	"/>
	<path class="st6" d="M206.53,403.25c0,0-12.76,6.99-12.18,27.33c0.58,20.35,20.15,28.61,32.55,28.61c22.36,0,29-8.91,29-8.91
		s-13.34,7.36-28.83,5.83c-17.98-1.77-28.7-11.75-29.35-25.54C196.71,409.3,206.53,403.25,206.53,403.25z"/>
	<path class="st6" d="M221.4,417.38c0,0,2.32-6,9.17-6c5.45,0,12.06,2.72,12.06,15.01c0,12.29-7.48,15-7.48,15s4.9-1.33,5.13-13.4
		c0.26-13.54-7.81-14.58-10.61-14.63C223.11,413.26,221.4,417.38,221.4,417.38z"/>
	<path class="st8" d="M300.57,23.92c0,0,169.8,30.16,174.75,223.38c2.18,85.19-43.27,139.22-43.27,139.22s41.53-52.67,40.59-139.1
		C470.6,60.13,300.57,23.92,300.57,23.92z"/>
	<path class="st8" d="M459.57,397.67l0.65,1.13l0.62,1.67l0.35,1.36l0.19,1.68l0.04,53.04c0,0,0.98,7.4-5,11.83
		c-6.68,4.95-12.01,4.2-12.01,4.2l-392.7,0.04l1.4-1.14c0,0,385.83,0.42,392,0c6.17-0.43,9.4-3.39,11.32-5.18
		c3.75-3.52,3.19-9.65,3.19-9.65L459.57,397.67z"/>
</g>
<g id="Layer_2">
</g>
</svg>
