<?xml version="1.0" encoding="UTF-8" standalone="no"?>
<!-- Created with Inkscape (http://www.inkscape.org/) -->

<svg
   width="101.44372mm"
   height="113.75114mm"
   viewBox="0 0 101.44372 113.75114"
   version="1.1"
   id="svg1"
   xml:space="preserve"
   xmlns="http://www.w3.org/2000/svg"
   xmlns:svg="http://www.w3.org/2000/svg"><defs
     id="defs1" /><g
     id="layer1"
     transform="translate(-12.788933,-12.889463)"><path
       style="fill:#000000;fill-opacity:1"
       d="m 42.001033,126.16531 c -2.993621,-1.36734 -4.915668,-5.40133 -4.33219,-9.09239 0.245972,-1.55601 0.801976,-2.44085 2.080541,-3.31103 1.218118,-0.82904 2.67061,-0.7722 4.690939,0.18358 3.084714,1.45932 5.365914,4.50338 5.365914,7.16035 0,3.93151 -4.247185,6.68462 -7.805204,5.05949 z m 4.618467,-1.08649 c 1.073967,-0.5479 1.917317,-1.5351 2.264437,-2.65068 0.17986,-0.57802 0.0243,-0.50558 -1.24786,0.58131 -0.79933,0.68289 -2.02499,1.54558 -2.723695,1.91708 l -1.270371,0.67546 H 44.618 c 0.536794,0 1.437469,-0.23543 2.0015,-0.52317 z M 44.309518,124.226 c 1.632273,-0.86999 3.989789,-2.81287 4.444789,-3.66305 0.14095,-0.26338 0.18435,-0.66632 0.0964,-0.89542 -0.12588,-0.32804 -0.47513,-0.12839 -1.64375,0.93967 -2.130287,1.94696 -3.274854,2.62088 -5.999716,3.53261 -0.522497,0.17483 -0.522694,0.18182 -0.01558,0.55504 0.760207,0.55948 1.3568,0.46976 3.117811,-0.46885 z m -1.250151,-2.1896 c 1.200806,-0.5857 2.398326,-1.45752 3.405475,-2.47925 l 1.553385,-1.57588 -0.49506,-0.66459 c -0.37658,-0.50555 -0.6615,-0.63205 -1.190566,-0.52861 -0.741977,0.14507 -1.156568,-0.23383 -1.156568,-1.057 0,-0.26302 -0.324222,-0.67561 -0.720494,-0.91686 -0.687794,-0.41874 -0.753841,-0.41172 -1.455209,0.15481 -0.871001,0.70356 -2.610264,1.85501 -3.753158,2.48473 -0.630472,0.34738 -0.818014,0.63149 -0.818014,1.2392 0,0.66347 0.115353,0.80175 0.727605,0.8722 0.937948,0.10792 1.20941,1.23248 0.351659,1.45679 -0.658845,0.17229 -0.70628,0.79974 -0.123376,1.63196 0.523328,0.74715 1.062182,0.65659 3.674321,-0.6175 z m -1.992185,-2.39694 c -0.480738,-0.57926 -0.01655,-1.31351 0.830396,-1.31351 0.526524,0 0.632622,0.13312 0.632622,0.79375 0,0.60325 -0.132557,0.81269 -0.552319,0.87267 -0.303776,0.0434 -0.71359,-0.11541 -0.910699,-0.35291 z m 2.536846,-1.60039 c -0.243541,-0.24355 -0.376424,-0.61579 -0.295294,-0.82721 0.08113,-0.21142 0.147508,-0.43419 0.147508,-0.49505 0,-0.0609 0.301393,-0.11065 0.669762,-0.11065 0.755704,0 1.135734,0.65359 0.742505,1.27699 -0.382428,0.60627 -0.766737,0.65366 -1.264481,0.15592 z m -1.867578,-3.55404 0.529167,-0.59082 -0.926042,0.19665 c -1.343471,0.2853 -1.79592,0.58089 -2.25855,1.47552 l -0.411944,0.79661 1.269101,-0.64357 c 0.698006,-0.35396 1.507226,-0.90943 1.798268,-1.23439 z m 23.413907,11.13434 c -3.03929,-0.92451 -5.00835,-3.61489 -5.01956,-6.85835 -0.0112,-3.23555 1.15354,-6.32453 3.27396,-8.68294 1.4624,-1.62655 2.59347,-2.20317 4.32163,-2.20317 3.52337,0 6.96414,5.13301 7.00338,10.44777 0.019,2.57544 -0.51709,4.00713 -2.05875,5.49802 -1.7582,1.70028 -5.16529,2.51514 -7.52066,1.79867 z m 5.34157,-1.63254 c 1.41537,-0.7176 1.5554,-1.1095 0.30858,-0.8636 -1.4232,0.28069 -5.55529,0.2153 -6.91634,-0.10945 -0.98748,-0.23561 -1.09353,-0.22025 -0.81302,0.11774 1.30278,1.56975 5.13946,2.01197 7.42078,0.85531 z m 2.11987,-3.22878 c 0.79923,-0.33394 1.00816,-0.58203 1.15663,-1.37344 0.27059,-1.44238 -0.0691,-1.58614 -2.1679,-0.91749 -3.17369,1.01107 -6.40774,0.79394 -9.95419,-0.66833 -0.40052,-0.16514 -0.46302,-0.0308 -0.46302,0.99562 0,1.55522 -0.001,1.55444 3.57188,2.42076 1.15588,0.28025 6.89035,-0.0534 7.8566,-0.45712 z m -1.78311,-3.75713 c 1.9508,-0.41325 2.69724,-0.8884 2.44172,-1.55428 -0.1403,-0.36561 -0.29677,-0.36503 -1.54531,0.006 -1.8601,0.55239 -5.7335,0.55352 -7.85117,0.002 -2.10545,-0.54805 -2.16144,-0.54588 -2.16144,0.0839 0,0.65587 0.67335,1.01658 2.73404,1.4646 2.16979,0.47173 4.14807,0.47105 6.38216,-0.002 z m 1.25856,-2.47535 c 0.66805,-0.26058 0.69763,-0.33677 0.42944,-1.10608 -0.23244,-0.66679 -0.39643,-0.79602 -0.84976,-0.66967 -2.20743,0.61525 -4.38069,0.71837 -6.53575,0.31014 -2.07682,-0.39342 -2.25052,-0.39172 -2.55879,0.0251 -0.50391,0.68138 -0.41316,0.8678 0.6358,1.30608 1.92229,0.80319 6.96866,0.87957 8.87906,0.1344 z m -2.10653,-2.96041 c 0.5457,-0.15154 0.99219,-0.3373 0.99219,-0.41279 0,-0.43472 -0.63781,-1.18478 -1.41695,-1.66631 -1.35156,-0.83531 -3.0029,-0.74352 -4.36419,0.24259 -0.60392,0.43748 -1.09803,0.96143 -1.09803,1.16434 0,0.77766 3.90262,1.22326 5.88698,0.67217 z m -3.50573,-1.70588 c 0,-0.28663 0.29398,-0.39687 1.05833,-0.39687 0.76435,0 1.05834,0.11024 1.05834,0.39687 0,0.28664 -0.29399,0.39688 -1.05834,0.39688 -0.76435,0 -1.05833,-0.11024 -1.05833,-0.39688 z m 21.95871,8.35175 c -2.68185,-0.81578 -4.23162,-2.77319 -4.23162,-5.34465 0,-1.88133 0.75687,-3.33246 2.65445,-5.08928 2.54481,-2.35605 5.39365,-3.13396 7.14784,-1.95181 1.44155,0.97145 1.97594,2.15266 1.94472,4.29858 -0.0425,2.91951 -0.68263,4.68431 -2.30106,6.34345 -1.72533,1.76875 -3.34807,2.3114 -5.21433,1.74371 z m 0.002,-1.37718 c -0.50893,-0.31024 -1.45404,-0.99441 -2.10026,-1.52036 l -1.17494,-0.95629 0.51277,0.882 c 0.5566,0.95741 2.30981,2.15479 3.15859,2.15722 0.40435,10e-4 0.3109,-0.13154 -0.39616,-0.56257 z m 3.62688,-0.12531 c 0.0531,-0.16198 -0.29492,-0.45175 -0.77335,-0.64394 -1.44218,-0.57934 -3.77876,-2.26793 -4.8985,-3.54001 -1.07633,-1.22279 -1.39532,-1.2907 -1.39532,-0.29707 0,0.73921 2.37488,3.03301 4.23333,4.08881 1.42525,0.8097 2.64182,0.97807 2.83384,0.39221 z m 1.91956,-2.02912 c 0.33495,-0.60426 0.34407,-0.77116 0.0521,-0.95409 -0.55359,-0.34684 -0.26987,-1.47132 0.39514,-1.56608 0.56253,-0.0802 1.05842,-1.1435 0.75911,-1.62778 -0.078,-0.12624 -0.67467,-0.48746 -1.32589,-0.80271 -0.65122,-0.31525 -1.78328,-1.11195 -2.51569,-1.77046 -1.08751,-0.97775 -1.45574,-1.16613 -2.00838,-1.02743 -0.58104,0.14584 -0.65368,0.27471 -0.51378,0.91166 0.21738,0.98971 -0.37626,1.53345 -1.14798,1.0515 -0.45117,-0.28176 -0.62041,-0.25697 -1.07906,0.15811 -0.73435,0.66457 -0.68686,1.07975 0.26025,2.27558 1.30561,1.64846 5.39153,4.33109 6.33043,4.15627 0.21328,-0.0397 0.57047,-0.40177 0.79375,-0.80457 z m -2.46035,-2.2184 c -0.36442,-0.36443 -0.15637,-1.13862 0.38365,-1.42763 0.73619,-0.394 1.42927,0.2257 1.16912,1.04535 -0.17178,0.54123 -1.15239,0.78265 -1.55277,0.38228 z m -2.19144,-1.79253 c -0.26061,-0.67914 0.022,-1.33635 0.61079,-1.42057 0.80638,-0.11534 1.29287,0.81726 0.72338,1.38674 -0.51913,0.51914 -1.14188,0.53493 -1.33417,0.0338 z m 5.32481,-2.95565 c -0.25721,-0.47762 -0.85723,-1.05325 -1.33338,-1.2792 -0.9286,-0.44065 -1.97637,-0.54569 -1.97637,-0.19813 0,0.32408 1.60451,1.78239 2.64583,2.40474 1.11052,0.66371 1.34466,0.33664 0.66392,-0.92741 z M 12.8727,111.74489 c -0.08021,-0.20901 -0.107674,-0.7663 -0.06104,-1.23842 0.08165,-0.82658 0.347049,-1.10623 1.341559,-1.41354 0.40991,-0.12667 0.463021,-0.53787 0.463021,-3.58487 v -3.44179 l -0.727604,-0.45518 c -0.400183,-0.25036 -0.780408,-0.49442 -0.844945,-0.54237 -0.06454,-0.0479 0.266467,-0.43773 0.735566,-0.86618 l 0.852907,-0.779007 -0.07411,-3.37886 -0.07411,-3.37886 -0.79375,-0.13578 c -0.712842,-0.12194 -0.801827,-0.24586 -0.872995,-1.21573 -0.04832,-0.65846 0.05494,-1.1833 0.264584,-1.34477 0.270969,-0.20871 7.400026,-0.77873 12.250078,-0.97948 l 0.79375,-0.0329 0.07466,3.12298 0.07467,3.12297 -1.397581,-0.0803 -1.397582,-0.0803 -0.0795,-1.52643 -0.0795,-1.52644 -2.169457,0.1592 c -1.193202,0.0876 -2.318285,0.20517 -2.500187,0.26136 -0.242437,0.0749 -0.330729,1.02261 -0.330729,3.55004 v 3.44789 l 1.124479,-0.004 c 1.352674,-0.005 1.652068,-0.17848 1.874059,-1.08667 0.125511,-0.51348 0.389723,-0.73787 1.016389,-0.8632 0.465736,-0.0932 0.94791,-0.0682 1.071499,0.0553 0.123588,0.12359 0.190561,1.46453 0.148828,2.979867 l -0.07588,2.75516 -1.124479,0.0814 c -1.099293,0.0795 -1.124479,0.0629 -1.124479,-0.74143 v -0.82279 l -1.389063,0.08 -1.389062,0.08 -0.07382,3.50573 -0.07383,3.50573 1.793617,-0.0313 c 0.98649,-0.0172 2.150805,-0.10711 2.587367,-0.19975 0.754863,-0.16019 0.800231,-0.24616 0.926042,-1.75463 l 0.132292,-1.58619 1.265295,-0.081 1.265296,-0.081 -0.07467,3.1237 -0.07467,3.12369 -2.248959,0.1633 c -1.236927,0.0898 -4.186021,0.2424 -6.553542,0.33907 -3.612298,0.1475 -4.328037,0.11465 -4.450413,-0.20426 z m 3.975196,-11.66446 -0.438286,-0.668907 -0.515517,0.655367 c -0.496785,0.63156 -0.498362,0.67812 -0.0434,1.28128 l 0.472117,0.62589 0.481685,-0.61236 c 0.451678,-0.57421 0.454382,-0.65404 0.0434,-1.28127 z m 11.751343,10.84095 c -0.07069,-0.0707 -0.06077,-0.62885 0.02205,-1.24035 0.13165,-0.97206 0.254067,-1.13859 0.973824,-1.32475 0.766321,-0.1982 0.900515,-0.42518 1.940761,-3.28267 l 1.117516,-3.06975 -0.596839,-0.63531 c -0.328262,-0.34942 -0.54676,-0.67433 -0.485553,-0.72203 0.06121,-0.0477 0.48606,-0.34526 0.944116,-0.661247 0.686251,-0.4734 1.047142,-1.15646 2.05052,-3.88104 0.669731,-1.81859 1.217692,-3.46952 1.217692,-3.66873 0,-0.24369 -0.216444,-0.32084 -0.661458,-0.23577 -0.604946,0.11565 -0.661459,0.0463 -0.661459,-0.81154 0,-0.74622 0.520533,-1.76953 0.900116,-1.76953 0.03771,0 1.368662,-0.23632 2.957664,-0.52515 1.589002,-0.28883 3.216517,-0.52696 3.616699,-0.52917 0.685867,-0.004 0.727605,0.0639 0.727605,1.17904 0,1.08564 -0.06397,1.20003 -0.776878,1.38907 l -0.776878,0.206 1.353025,3.1455 c 1.134554,2.6376 1.498465,3.23131 2.253762,3.67694 l 0.900736,0.53145 -0.706428,0.56329 -0.706429,0.56328 1.293927,2.638737 c 1.138401,2.32157 1.387667,2.65482 2.073807,2.7725 0.70102,0.12023 0.78805,0.24586 0.86053,1.24226 0.0796,1.09456 0.068,1.1108 -0.92604,1.29121 -0.55367,0.10049 -2.078239,0.38927 -3.387926,0.64174 -1.309688,0.25246 -2.47922,0.3706 -2.59896,0.26251 -0.404889,-0.36546 -0.06766,-1.91878 0.482293,-2.22149 0.291042,-0.16019 0.580162,-0.32241 0.64249,-0.36049 0.171181,-0.10457 -1.371966,-3.23806 -1.594646,-3.23806 -0.10637,0 -0.6304,0.59531 -1.16451,1.32291 -0.534111,0.72761 -1.105291,1.32292 -1.26929,1.32292 -0.164,0 -0.80821,-0.50056 -1.431579,-1.11235 -0.707064,-0.69393 -1.224606,-1.01738 -1.375874,-0.85989 -0.255642,0.26616 -1.611799,3.50751 -1.611799,3.85236 0,0.11077 0.327422,0.23907 0.727604,0.28512 0.673554,0.0775 0.727604,0.17216 0.727604,1.27434 v 1.19063 l -3.042708,0.44302 c -3.437812,0.50054 -3.828489,0.53509 -4.009087,0.35449 z m 10.622408,-8.99808 c 0.180463,-0.21744 0.266959,-0.71527 0.192213,-1.10627 -0.08997,-0.47064 0.04871,-0.960627 0.410299,-1.449697 l 0.546201,-0.73878 -0.742141,-1.92526 c -0.408177,-1.05889 -0.821396,-2.01481 -0.918264,-2.12427 -0.09687,-0.10946 -0.607155,0.9621 -1.133973,2.38125 l -0.957851,2.58026 0.707076,0.594467 c 0.661377,0.55605 0.675902,0.61317 0.224733,0.88386 -0.457635,0.27456 -0.458923,0.31527 -0.02514,0.79459 0.548236,0.6058 1.24767,0.65108 1.696847,0.10985 z m -3.717203,-1.19214 c -0.0014,-0.0728 -0.173663,-0.35838 -0.382824,-0.63471 -0.369574,-0.488257 -0.394476,-0.484907 -0.883569,0.1191 -0.426362,0.52653 -0.447828,0.67697 -0.14046,0.98434 0.199549,0.19955 0.365465,0.50314 0.368701,0.67465 0.0032,0.1715 0.238713,0.0142 0.523283,-0.34963 0.28457,-0.3638 0.516261,-0.72099 0.514869,-0.79375 z m 7.25485,-1.725937 c -0.669658,-0.50718 -0.761602,-0.48732 -1.091023,0.23568 -0.224854,0.4935 -0.197167,0.71464 0.130494,1.042307 0.378149,0.37815 0.463031,0.35599 0.935055,-0.24409 0.505623,-0.642797 0.506287,-0.669737 0.02547,-1.033897 z m 7.642253,7.906467 c -0.23801,-0.10018 -0.33073,-1.01382 -0.33073,-3.25909 v -3.11988 l 0.82683,-0.16536 c 1.65043,-0.33009 1.81901,-0.25196 1.81901,0.84308 0,1.84814 1.66833,2.78599 3.8912,2.18743 2.5438,-0.68497 3.847,-3.924337 2.22949,-5.541847 -0.36849,-0.36849 -1.0913,-0.52273 -3.10213,-0.66194 -4.47158,-0.30959 -6.19599,-1.63828 -6.19098,-4.77028 0.003,-1.96361 0.79585,-3.81167 2.25113,-5.24817 1.53401,-1.5142 3.09603,-2.16266 5.48535,-2.27721 1.12779,-0.0541 2.05052,-0.19311 2.05052,-0.30898 0,-0.2528 1.46761,-0.79162 2.15615,-0.79162 0.44792,0 0.48968,0.25754 0.48968,3.01946 v 3.01945 l -1.04862,0.17716 c -1.20674,0.20388 -1.59721,0.0424 -1.59721,-0.66068 0,-0.27434 -0.27615,-0.81983 -0.61366,-1.21222 -0.55295,-0.64284 -0.73048,-0.6959 -1.79456,-0.53633 -2.22821,0.33414 -3.78303,1.7765 -3.78303,3.50941 0,1.53926 0.71761,1.97341 3.71781,2.24927 3.27928,0.30152 4.6586,0.79604 5.57633,1.99924 0.92653,1.21475 1.13355,3.63235 0.47962,5.601137 -1.21787,3.66668 -5.77529,6.13824 -9.13876,4.9561 -1.55026,-0.54486 -1.53844,-0.54704 -1.63607,0.30144 -0.0644,0.56016 -0.23595,0.73935 -0.74518,0.77863 -0.3638,0.0281 -0.81029,-0.0116 -0.99219,-0.0882 z m 18.10482,-3.97276 c -0.0986,-0.0986 -0.1793,-0.58019 -0.1793,-1.07017 0,-0.73767 0.15925,-0.98482 0.92604,-1.43724 l 0.92605,-0.546377 v -3.17185 -3.17185 l -0.79375,-0.2996 c -0.43657,-0.16479 -0.79375,-0.3703 -0.79375,-0.45669 0,-0.0864 0.35718,-0.49928 0.79375,-0.91753 l 0.79375,-0.76046 v -3.39009 c 0,-1.86455 -0.0663,-3.39008 -0.14742,-3.39008 -0.57301,0 -2.66741,0.66928 -2.82509,0.90278 -0.10692,0.15831 -0.19621,1.07878 -0.19844,2.04548 -0.005,1.93696 -0.12414,2.07882 -1.75363,2.07882 h -0.91254 l 0.0743,-3.24115 0.0743,-3.24114 7.27604,-1.87989 c 4.00182,-1.03393 7.36534,-1.83058 7.47448,-1.77032 0.36159,0.19965 0.23566,6.43331 -0.13229,6.54831 -0.1819,0.0569 -0.77722,0.17758 -1.32292,0.26827 l -0.99219,0.1649 -0.004,-1.40105 c -0.006,-1.88784 -0.20402,-2.14499 -1.47866,-1.91496 -0.56696,0.10231 -1.17966,0.30414 -1.36156,0.44851 -0.40272,0.31962 -0.46659,6.06404 -0.0755,6.79472 0.14035,0.26225 0.6166,0.5491 1.05833,0.63745 1.04949,0.20989 1.01409,0.50614 -0.13436,1.12438 -0.51564,0.27757 -0.99684,0.74281 -1.06934,1.03385 -0.0725,0.29104 -0.0971,1.77932 -0.0547,3.30729 l 0.0772,2.77813 h 0.92604 c 0.8708,0 0.92115,0.0474 0.84393,0.79375 -0.12606,1.218567 -0.81903,1.701437 -3.38201,2.356677 -1.29619,0.33137 -2.60345,0.68213 -2.90501,0.77946 -0.30157,0.0973 -0.62899,0.0963 -0.72761,-0.002 z m 3.895,-10.538457 c 0.40254,-0.61436 0.39879,-0.68997 -0.0568,-1.14553 -0.47395,-0.47395 -0.49946,-0.46736 -0.90123,0.2327 -0.37623,0.65552 -0.37518,0.75875 0.0116,1.14552 0.52499,0.52499 0.43553,0.54699 0.94639,-0.23269 z m 8.67735,6.01558 c 0.0726,-1.13197 0.16604,-1.29435 0.94054,-1.63524 l 0.8599,-0.37848 v -3.12046 -3.12046 l -0.82394,-0.42607 -0.82394,-0.42608 0.82394,-0.85008 0.82394,-0.85009 v -3.39029 -3.39029 l -0.92604,0.17373 -0.92604,0.17372 v -1.17021 c 0,-0.64362 0.15352,-1.29764 0.34116,-1.45337 0.3668,-0.30441 10.20888,-2.34359 11.96196,-2.47839 l 1.05833,-0.0814 0.0743,3.07416 0.0742,3.07417 -0.83492,0.16698 c -1.99232,0.39846 -2.09169,0.33098 -2.09169,-1.42052 0,-1.55842 -0.0133,-1.58727 -0.72761,-1.57515 -0.40018,0.007 -1.50151,0.15655 -2.44739,0.33279 l -1.71979,0.32044 v 3.43753 3.43752 l 1.05833,-0.0922 c 1.32992,-0.1159 1.79805,-0.48599 1.60213,-1.26662 -0.17161,-0.68373 0.44652,-1.15469 1.51551,-1.15469 0.62274,0 0.64302,0.0678 0.80247,2.68514 0.09,1.47682 0.10093,2.78651 0.0243,2.91041 -0.0766,0.12391 -0.58934,0.22528 -1.13948,0.22528 -0.80813,0 -1.05769,-0.12608 -1.29934,-0.65643 -0.25516,-0.56002 -0.42656,-0.63438 -1.16695,-0.50627 -0.47732,0.0826 -1.01668,0.19565 -1.19859,0.25125 -0.24081,0.0736 -0.33072,0.97227 -0.33072,3.30542 v 3.20433 l 0.7276,-0.14682 c 0.40018,-0.0807 1.53128,-0.28103 2.51354,-0.44506 l 1.78594,-0.29824 v -1.41606 -1.41605 l 0.99219,-0.16717 c 0.5457,-0.0919 1.17078,-0.18663 1.38906,-0.21042 0.32677,-0.0356 0.41014,0.45913 0.47197,2.801 0.0413,1.56435 -0.0182,2.84505 -0.13229,2.84601 -0.85032,0.007 -7.7761,1.17528 -10.16492,1.71452 -1.62023,0.36575 -2.99593,0.665 -3.05711,0.665 -0.0612,0 -0.0749,-0.56555 -0.0306,-1.25678 z m 4.17056,-9.37852 c 0.45427,-0.561 0.45115,-0.59714 -0.0899,-1.04316 -0.53791,-0.44345 -0.5784,-0.43879 -1.00666,0.11585 -0.40848,0.52903 -0.4106,0.61722 -0.0251,1.04316 0.5313,0.58708 0.55442,0.58469 1.12168,-0.11585 z m 11.49104,7.34663 c -0.35023,-0.9127 0.0284,-1.87024 0.88936,-2.24919 l 0.8599,-0.37848 v -2.98816 -2.98817 l -0.79375,-0.41046 c -0.99672,-0.51542 -0.99543,-0.79051 0.008,-1.63457 l 0.80143,-0.67436 -0.0738,-3.34345 -0.0738,-3.34346 -0.85989,-0.0829 c -0.80904,-0.078 -0.8599,-0.14396 -0.8599,-1.11517 0,-0.71571 0.14199,-1.10552 0.46302,-1.27115 0.75653,-0.39031 7.093093,-0.90358 8.762783,-0.70979 3.36224,0.39023 5.59282,2.70911 5.58939,5.81066 -0.003,2.68991 -0.9473,4.4374 -2.95011,5.45915 -0.69627,0.35521 -0.96569,0.63489 -0.82661,0.85808 0.11348,0.18212 0.90753,1.49081 1.76456,2.9082 0.85703,1.41739 1.67275,2.64785 1.81271,2.73435 0.13996,0.0865 0.8675,0.2321 1.61676,0.32355 l 1.36229,0.16628 v 1.05833 1.05833 l -2.67665,0.075 -2.67665,0.075 -2.49049,-3.91147 c -2.28979,-3.59625 -2.55917,-3.91816 -3.34262,-3.99438 l -0.85213,-0.0829 v 2.92718 2.92718 h 0.94054 0.94054 l -0.0806,1.25677 -0.0807,1.25677 -2.38125,0.17642 c -1.30968,0.097 -2.891643,0.24418 -3.515463,0.327 -0.83481,0.11083 -1.17177,0.0527 -1.2765,-0.22021 z m 4.104073,-9.62653 c 0.16935,-0.31642 0.0993,-0.62533 -0.23572,-1.03903 l -0.47672,-0.58872 -0.445073,0.67926 c -0.41766,0.63742 -0.41717,0.7101 0.008,1.17982 0.486623,0.5377 0.768363,0.48101 1.149593,-0.23133 z m 5.33604,-2.44025 c 1.37595,-0.73638 1.92549,-2.8597 1.19353,-4.61153 -0.49971,-1.19598 -1.60304,-1.72886 -3.57958,-1.72886 h -1.60064 v 3.31581 c 0,3.16428 0.0263,3.32556 0.57613,3.52895 0.63382,0.23446 2.56318,-0.0508 3.41056,-0.50437 z m -92.835755,-2.43652 c 0.0737,-1.01744 0.156105,-1.13599 0.875109,-1.25892 l 0.79375,-0.1357 0.07459,-2.95039 0.07459,-2.95039 -0.829899,-0.59094 -0.8299,-0.59095 0.821459,-0.64288 0.821458,-0.64289 v -3.40842 -3.40842 l -0.926041,-0.17372 c -0.864459,-0.16218 -0.926042,-0.24027 -0.926042,-1.17431 0,-0.66832 0.138974,-1.05391 0.418515,-1.16118 0.230183,-0.0883 1.897058,-0.1606 3.704166,-0.1606 h 3.285652 v 1.19063 c 0,1.07726 -0.0599,1.19062 -0.629061,1.19062 -1.087326,0 -1.246533,0.51103 -1.165806,3.74204 l 0.07508,3.00484 2.935596,-0.0221 c 1.614578,-0.0122 3.132625,-0.0977 3.373438,-0.19014 0.375167,-0.14396 0.437841,-0.64261 0.437841,-3.48361 0,-3.28336 -0.0059,-3.31559 -0.608542,-3.31559 -0.755106,0 -1.24481,-0.46518 -1.23949,-1.1774 0.0086,-1.15225 0.370297,-1.30815 3.751498,-1.61709 1.79075,-0.16361 3.345205,-0.24961 3.454346,-0.19109 0.109141,0.0585 0.198437,0.6276 0.198437,1.26464 0,1.11334 -0.03334,1.16146 -0.859895,1.24115 l -0.859896,0.0829 -0.07413,3.38361 -0.07413,3.3836 0.934023,0.39026 c 0.513712,0.21464 0.934022,0.49596 0.934022,0.62516 0,0.12919 -0.416718,0.48077 -0.926041,0.78127 l -0.926042,0.54638 v 3.03487 3.03487 l 0.859896,0.0829 c 0.777072,0.0749 0.867555,0.17428 0.93942,1.0316 0.04601,0.5489 -0.06549,1.06594 -0.264583,1.22693 -0.189259,0.15303 -1.832389,0.32143 -3.651399,0.37423 l -3.307292,0.096 v -1.05834 c 0,-0.92775 0.08162,-1.06978 0.661458,-1.15115 0.363802,-0.0511 0.748932,-0.22965 0.855845,-0.39688 0.106912,-0.16723 0.196209,-1.54196 0.198437,-3.05496 l 0.0041,-2.75091 -3.211147,0.14795 c -2.256705,0.10397 -3.27931,0.25316 -3.440477,0.50195 -0.126133,0.1947 -0.199164,1.54369 -0.162292,2.99775 l 0.06704,2.64376 0.79375,0.13553 c 0.659573,0.11262 0.807346,0.27508 0.874184,0.96108 0.144139,1.4794 -0.355535,1.68567 -4.083296,1.68567 h -3.303606 z m 4.167805,-9.23078 -0.33067,-0.79831 -0.591138,0.74136 -0.591138,0.74136 0.556622,0.57833 c 0.550509,0.57198 0.560632,0.5726 0.921808,0.057 0.298892,-0.42673 0.305158,-0.6663 0.03452,-1.31969 z m 10.601729,0.49826 c 0.472851,-0.57981 0.471288,-0.61055 -0.06003,-1.18017 l -0.545527,-0.58485 -0.503621,0.64025 c -0.484429,0.61585 -0.485567,0.65999 -0.02985,1.15812 0.607116,0.66362 0.56973,0.66472 1.139028,-0.0334 z m 5.023283,7.34975 c 0,-1.1131 0.05085,-1.1961 0.859896,-1.4036 0.793947,-0.20363 0.945076,-0.4325 1.970549,-2.98413 0.610859,-1.51997 1.116875,-2.96519 1.124479,-3.2116 0.0076,-0.24641 -0.254065,-0.64314 -0.581487,-0.88162 -0.571378,-0.41616 -0.575436,-0.44602 -0.100921,-0.7426 1.250172,-0.7814 1.573852,-1.32531 2.781887,-4.67464 l 1.288302,-3.57187 -0.69479,-0.13355 c -0.743752,-0.14296 -1.056885,-1.10812 -0.59155,-1.82331 0.215176,-0.33072 6.347216,-1.86285 7.50353,-1.87481 0.37355,-0.004 0.46302,0.22686 0.46302,1.19414 0,1.20019 -0.0238,1.23059 -1.248776,1.5932 -0.346667,0.10263 2.125346,5.99687 2.582806,6.15842 0.13551,0.0479 0.51587,0.30564 0.84524,0.57284 l 0.59885,0.48582 -0.61294,0.65361 -0.61294,0.65361 1.34295,2.67616 c 1.25254,2.49596 1.39625,2.67616 2.1343,2.67616 0.7615,0 0.79134,0.0449 0.79134,1.19062 0,0.65485 -0.0298,1.19437 -0.0661,1.19895 -0.0364,0.005 -1.37583,0.23895 -2.97656,0.52085 -4.163435,0.73319 -4.10104,0.74117 -4.10104,-0.52413 0,-0.90285 0.09448,-1.077 0.661458,-1.21931 0.363802,-0.0913 0.661452,-0.27556 0.661452,-0.40946 0,-0.13389 -0.37304,-0.98244 -0.82898,-1.88566 l -0.828986,-1.64221 -0.692368,0.90865 c -0.380802,0.49975 -0.944155,1.20564 -1.251895,1.56864 l -0.559526,0.65999 -1.287208,-1.10027 c -1.464619,-1.25192 -1.300051,-1.35501 -2.506185,1.5699 -0.740903,1.79671 -0.749442,1.86402 -0.218853,1.72527 0.303672,-0.0794 0.71924,-0.0803 0.923485,-0.002 0.463643,0.17791 0.493817,1.77204 0.04063,2.14631 -0.25739,0.21257 -5.601876,1.11458 -6.603958,1.11458 -0.114985,0 -0.209063,-0.53238 -0.209063,-1.18306 z m 11.124273,-8.48842 c 0.31407,-0.37843 0.301778,-0.48627 -0.08791,-0.77121 -0.589764,-0.43125 -0.571533,-0.64186 0.119206,-1.37712 l 0.57224,-0.60912 -0.740655,-1.92147 c -0.40736,-1.05681 -0.830147,-2.02127 -0.939525,-2.14324 -0.109379,-0.12197 -0.582406,0.92948 -1.051171,2.33655 l -0.852301,2.5583 0.706362,0.73729 c 0.70039,0.73105 0.701528,0.73854 0.134631,0.88679 -0.660708,0.17278 -0.480508,0.64526 0.368482,0.96615 0.622375,0.23524 1.206835,0.0164 1.770637,-0.66292 z m -4.399991,-1.04149 c -0.239328,-0.36526 -0.467286,-0.66411 -0.506574,-0.66411 -0.03929,0 -0.273061,0.30772 -0.519496,0.68383 -0.422045,0.64412 -0.421274,0.71344 0.01327,1.19361 0.45518,0.50296 0.467923,0.5027 0.954637,-0.0197 0.462541,-0.49648 0.466168,-0.57091 0.05816,-1.19361 z m 7.423193,-0.29257 c 0.43153,-0.6586 0.42663,-0.70856 -0.11936,-1.21723 -0.31314,-0.29174 -0.591245,-0.4887 -0.618004,-0.43769 -0.02676,0.051 -0.198102,0.36002 -0.380762,0.68669 -0.280163,0.50103 -0.25947,0.67347 0.132291,1.10243 0.255421,0.27967 0.480475,0.51842 0.500115,0.53054 0.0196,0.0121 0.23822,-0.287 0.48572,-0.66474 z m 7.54835,6.03138 c 0,-1.15067 0.37127,-1.64042 1.24354,-1.64042 0.59965,0 0.60855,-0.0444 0.60855,-3.03639 v -3.03639 l -0.96283,-0.49396 -0.96284,-0.49396 0.96284,-0.73439 0.96283,-0.73438 v -3.43763 -3.43763 l -0.94115,0.17656 -0.94114,0.17656 0.0812,-1.27159 0.0812,-1.27159 2.91042,-0.57384 c 4.48465,-0.88423 7.29769,-1.04604 8.72287,-0.50176 2.29329,0.87582 3.47821,2.99592 3.25168,5.81801 -0.29722,3.70274 -2.28668,5.54184 -6.99806,6.46915 l -2.33066,0.45874 v 2.49922 2.49923 h 0.92604 c 0.85867,0 0.93226,0.065 1.01146,0.89354 0.047,0.49144 -0.0216,1.00051 -0.1523,1.13125 -0.1945,0.19451 -6.54534,1.54708 -7.2641,1.54708 -0.11531,0 -0.20964,-0.45244 -0.20964,-1.00541 z m 4.09137,-8.67425 c 0.42132,-0.64301 0.4211,-0.71363 -0.004,-1.18298 -0.44065,-0.48692 -0.4641,-0.48339 -0.95754,0.14392 -0.48659,0.61859 -0.48781,0.66276 -0.0321,1.16092 0.26057,0.28483 0.48984,0.52779 0.50948,0.53992 0.0196,0.0121 0.23735,-0.28568 0.48378,-0.66178 z m 4.83498,-2.3964 c 1.55659,-0.55615 2.29955,-1.67068 2.29955,-3.44964 0,-1.52457 -0.56341,-2.56341 -1.75808,-3.24163 -0.5219,-0.29628 -1.00614,-0.3251 -2.22325,-0.13229 l -1.55603,0.2465 -0.0747,3.29261 c -0.0411,1.81094 -0.0129,3.45374 0.0627,3.65066 0.15994,0.41678 1.47216,0.26891 3.24982,-0.36621 z m 7.07498,8.67461 c -0.0695,-0.0695 -0.12633,-0.58113 -0.12633,-1.13701 0,-0.90498 0.0969,-1.05115 0.92604,-1.39761 l 0.92605,-0.38693 v -2.63726 c 0,-2.55835 -0.0213,-2.65279 -0.71225,-3.1561 l -0.71224,-0.51883 0.71993,-0.85559 c 0.71084,-0.84479 0.71899,-0.8978 0.6461,-4.19959 l -0.0738,-3.344 -0.99219,0.0776 -0.99219,0.0776 v -1.18016 -1.18015 l 1.25711,-0.26961 c 3.53507,-0.75813 6.62807,-1.14354 8.49554,-1.05858 1.72322,0.0784 2.24396,0.21545 3.1852,0.83835 2.05212,1.35805 2.95648,4.53247 2.03049,7.12725 -0.88796,2.48823 -2.92868,3.9041 -6.68408,4.63747 l -2.33113,0.45523 -0.0762,2.2994 -0.0762,2.29939 1.13455,0.0819 c 1.05304,0.076 1.14027,0.1405 1.2142,0.89814 0.0438,0.44896 -0.0753,0.94294 -0.26458,1.09773 -0.38152,0.31191 -7.29325,1.63212 -7.49395,1.43141 z m 3.96504,-9.18863 c 0.42132,-0.64301 0.4211,-0.71363 -0.004,-1.18298 -0.44065,-0.48691 -0.4641,-0.48339 -0.95754,0.14392 -0.48659,0.61859 -0.48781,0.66276 -0.0321,1.16093 0.26057,0.28482 0.48984,0.52779 0.50948,0.53991 0.0196,0.0121 0.23735,-0.28567 0.48378,-0.66178 z m 4.40197,-2.26259 c 2.0248,-0.67671 3.08902,-2.54076 2.62291,-4.5942 -0.4669,-2.05691 -2.11107,-2.8726 -4.73317,-2.34818 l -0.82683,0.16536 v 3.53881 3.5388 h 1.01885 c 0.56037,0 1.42358,-0.13527 1.91824,-0.30059 z m 12.45769,6.88987 c 0.0751,-1.05023 0.15522,-1.17359 0.81095,-1.24904 l 0.72761,-0.0837 v -3.00462 -3.00461 l -0.97554,-0.32196 -0.97555,-0.32196 0.57867,-0.46858 c 0.31827,-0.25771 0.57729,-0.62808 0.57562,-0.82304 -0.002,-0.19495 -1.07742,-1.63438 -2.39053,-3.19873 -2.16338,-2.57729 -2.47087,-2.84427 -3.27593,-2.84427 -1.01206,0 -1.27447,-0.40355 -1.03641,-1.59383 0.10476,-0.52382 0.35007,-0.83439 0.72041,-0.91207 1.31059,-0.27488 6.66511,-0.59557 6.86345,-0.41106 0.11907,0.11077 0.1786,0.66356 0.1323,1.22844 -0.0683,0.83246 -0.197,1.04308 -0.67951,1.11161 -0.32742,0.0465 -0.59531,0.19909 -0.59531,0.33909 0,0.33589 2.91758,4.20657 3.17076,4.20657 0.10792,0 0.93837,-1.0418 1.84543,-2.31511 l 1.64921,-2.3151 -0.81916,-0.0829 c -0.77693,-0.0786 -0.81916,-0.14197 -0.81916,-1.22846 0,-0.68616 0.13263,-1.18608 0.33073,-1.24661 0.1819,-0.0556 1.84877,-0.0586 3.704163,-0.007 l 3.37344,0.0943 v 1.16905 c 0,1.11864 -0.0337,1.16904 -0.782,1.16904 -0.68622,0 -1.07486,0.38074 -3.17335,3.10886 -1.315253,1.70987 -2.392103,3.25768 -2.393003,3.43958 -9.1e-4,0.1819 0.22945,0.33073 0.5119,0.33073 0.94946,0 0.83649,0.50457 -0.23539,1.05141 -1.27558,0.65075 -1.38366,0.99705 -1.28201,4.10796 l 0.0778,2.38125 0.92604,0.1323 c 0.87585,0.12512 0.93045,0.19324 1.0074,1.25677 l 0.0814,1.12448 h -1.42977 c -0.78638,0 -2.52738,0.0779 -3.86888,0.17313 l -2.43911,0.17313 z m 4.21983,-7.99572 c 0.40098,-0.55286 0.39976,-0.63625 -0.0168,-1.15073 l -0.44916,-0.55468 -0.59262,0.61573 c -0.57295,0.59529 -0.57678,0.63304 -0.11545,1.137 0.61089,0.66734 0.65708,0.66548 1.17407,-0.0473 z m -64.196894,-3.40024 c -2.507369,-1.38678 -3.926777,-5.42416 -3.048461,-8.67109 0.392597,-1.45134 1.716132,-2.8262 2.942107,-3.0562 2.095894,-0.39319 5.537547,1.78418 6.832577,4.32265 1.033964,2.02674 0.562443,4.77809 -1.081689,6.31171 -1.343361,1.25307 -4.31475,1.8284 -5.644534,1.09293 z m 4.696355,-1.33147 c 1.161063,-0.81777 0.842326,-0.85751 -0.529167,-0.066 -1.551486,0.89541 -1.703894,1.03336 -0.859896,0.77833 0.363802,-0.10993 0.98888,-0.43048 1.389063,-0.71234 z m -2.124211,-0.0466 c 1.890252,-0.85062 3.610507,-2.15528 3.921949,-2.97443 0.41271,-1.08551 0.0013,-1.27486 -0.901523,-0.41492 -1.268091,1.20788 -3.318658,2.40577 -4.914794,2.87111 -1.320352,0.38493 -1.397924,0.44945 -0.941618,0.78311 0.694479,0.50781 1.230103,0.45779 2.835986,-0.26487 z m -0.423795,-2.28736 c 0.89055,-0.43315 2.129713,-1.24061 2.753695,-1.79434 0.930429,-0.82569 1.105103,-1.12398 0.97102,-1.65821 -0.101078,-0.40272 -0.470531,-0.7673 -0.967758,-0.95498 -0.504541,-0.19045 -0.804264,-0.48963 -0.804264,-0.80281 0,-1.04738 -1.209107,-1.5121 -1.868132,-0.71802 -0.441953,0.53252 -2.162721,1.41127 -3.541439,1.80851 -0.865134,0.24927 -1.088565,0.44423 -1.154598,1.00746 -0.0695,0.59281 0.03048,0.71126 0.661458,0.78362 1.036913,0.1189 1.195864,1.16721 0.232516,1.53347 -0.784694,0.29834 -0.781574,0.28788 -0.361275,1.21034 0.289591,0.63558 0.41579,0.68426 1.389063,0.53581 0.588793,-0.0898 1.799164,-0.51769 2.689714,-0.95085 z m -2.096376,-1.93892 c -0.214556,-0.55912 0.427016,-1.3046 1.023849,-1.18966 0.342228,0.0659 0.511678,0.3164 0.511678,0.75638 0,0.51302 -0.152728,0.67554 -0.693804,0.73829 -0.42269,0.049 -0.751606,-0.0702 -0.841723,-0.30501 z m 2.365889,-1.62753 c -0.364562,-0.95003 0.634833,-1.60397 1.353296,-0.88551 0.209926,0.20993 0.22353,0.45756 0.04361,0.79375 -0.314667,0.58796 -1.184566,0.6451 -1.396904,0.0918 z m -2.171293,-2.18899 c 0.717696,-0.39679 1.347752,-0.85542 1.400125,-1.0192 0.148543,-0.4645 -1.29141,-0.61799 -2.207359,-0.23528 -0.761623,0.31822 -1.688293,1.29663 -1.688293,1.78255 0,0.42855 1.239688,0.16623 2.495527,-0.52807 z m 18.959435,4.90097 c -2.24278,-2.78975 -6.199204,-8.52177 -7.578709,-10.97995 -0.428658,-0.76383 -0.847864,-1.38891 -0.931569,-1.38906 -0.08371,-1.5e-4 -0.83601,0.53073 -1.67179,1.17973 -2.11472,1.64211 -4.223744,2.59553 -6.051972,2.73588 -1.466469,0.11257 -1.560231,0.0808 -2.405289,-0.81523 -1.500562,-1.59106 -2.186957,-4.97392 -2.45442,-12.09648 -0.113171,-3.01378 -0.06718,-4.71847 0.148537,-5.5051 0.604127,-2.20304 2.614046,-3.75359 7.245031,-5.58917 3.431483,-1.36014 4.575564,-2.04743 5.63302,-3.38394 2.591139,-3.27493 4.808431,-5.10096 6.193961,-5.10096 2.91835,0 7.10271,6.72863 9.8735,15.87707 1.8133,5.98701 2.89611,12.74068 3.25545,20.3047 0.0985,2.07368 0.26514,3.77032 0.37028,3.77032 0.10514,0 0.33189,-1.16086 0.5039,-2.57969 1.03738,-8.55721 2.67388,-14.45962 5.59356,-20.17448 4.08417,-7.99417 9.20914,-13.10319 15.70104,-15.65215 1.69135,-0.66409 2.63587,-0.86127 4.51946,-0.94353 2.96055,-0.12928 3.93732,0.28222 4.85086,2.04359 0.56396,1.08738 0.60478,1.42008 0.47069,3.83646 -0.3381,6.09275 -3.5818,15.18699 -7.59682,21.29896 -1.17564,1.78964 -2.80027,3.6616 -5.64108,6.49986 -2.19444,2.19247 -4.51378,4.36536 -5.15408,4.82865 -1.06315,0.76923 -2.40822,1.129 -2.40733,0.64389 2e-4,-0.10914 1.8159,-1.87184 4.03489,-3.91712 4.4835,-4.13248 6.41159,-6.23246 8.24365,-8.97852 4.48389,-6.72087 8.33547,-19.57613 7.007,-23.38698 -0.88024,-2.52504 -6.07272,-2.05688 -11.3484,1.0232 -2.34908,1.37145 -6.67009,5.5589 -8.604,8.33806 -1.96778,2.82784 -4.4819,7.97993 -5.65778,11.5943 -1.29919,3.99341 -2.04357,7.61621 -2.62419,12.77164 l -0.44424,3.94448 -1.48177,0.0782 -1.48176,0.0782 -0.18341,-4.3115 c -0.51978,-12.21911 -2.35403,-20.55566 -6.36263,-28.91776 -1.73321,-3.61556 -3.43309,-5.87044 -4.87614,-6.46817 -0.63373,-0.2625 -0.91412,-0.24767 -1.55181,0.0821 -1.34494,0.6955 -3.713164,3.52937 -6.549121,7.83683 -2.906835,4.41511 -5.08012,7.20859 -5.984906,7.69282 -0.426736,0.22838 -0.317861,-0.0536 0.482278,-1.2493 1.89136,-2.82626 4.373973,-6.99151 4.244383,-7.1211 -0.275848,-0.27585 -6.535968,2.60373 -7.553038,3.4743 -1.559278,1.33469 -1.732859,2.11981 -1.570206,7.1022 0.157656,4.82931 0.753147,8.72902 1.60007,10.47846 0.571475,1.18046 0.587817,1.19055 1.913911,1.18211 3.913775,-0.0249 9.655687,-5.61064 12.374439,-12.0378 1.11769,-2.64224 1.84517,-5.57315 2.41617,-9.73434 0.22605,-1.64739 0.56902,-3.29684 0.76216,-3.66545 l 0.35116,-0.67021 0.59653,1.38667 c 0.48291,1.12256 0.52916,1.42938 0.24282,1.61088 -0.2715,0.17209 -0.2461,0.22514 0.10931,0.22825 0.25466,0.002 0.46302,0.13976 0.46302,0.30562 0,0.16586 -0.20836,0.45972 -0.46302,0.65304 -0.42093,0.31953 -0.39687,0.35225 0.26458,0.3599 0.87861,0.0102 0.95574,0.46695 0.13229,0.78344 -0.58242,0.22385 -0.57812,0.23556 0.19844,0.54041 0.74648,0.29304 0.7646,0.333 0.30423,0.6711 -0.52505,0.3856 -0.3849,0.92388 0.24055,0.92388 0.20969,0 0.38126,0.11906 0.38126,0.26458 0,0.14552 -0.17859,0.26459 -0.39688,0.26459 -0.45766,0 -0.48109,0.0994 -0.17243,0.73119 0.12344,0.25269 0.46894,1.17381 0.76777,2.04693 0.29884,0.87313 1.09347,3.01625 1.76587,4.7625 2.54619,6.61266 3.79096,12.07146 4.26282,18.69414 0.17104,2.40057 0.14938,2.57201 -0.35934,2.84427 -1.7788,0.95198 -2.86204,0.0848 -6.28849,-5.03421 -2.96772,-4.43369 -4.84392,-7.81817 -5.959021,-10.74951 -0.345982,-0.90951 -0.704619,-1.65365 -0.796971,-1.65365 -0.166739,0 -1.803291,1.9353 -2.19162,2.59169 -0.369553,0.62465 3.980282,7.42635 7.902762,12.35727 1.27336,1.60073 2.3795,3.07127 2.45808,3.26785 0.12637,0.3161 -0.32798,0.81809 -0.75046,0.82914 -0.0851,0.002 -1.1359,-1.21634 -2.33504,-2.70792 z m 5.92941,-1.52546 c -0.89191,-0.18158 -1.04703,-0.14112 -0.82656,0.2156 0.0839,0.13569 0.48273,0.17904 0.88639,0.0963 l 0.73392,-0.15036 z m 0.39687,-1.31881 c 0.29132,-0.18827 0.10356,-0.25756 -0.70596,-0.26053 -0.60656,-0.002 -1.29252,-0.0768 -1.52436,-0.16581 -0.30851,-0.11838 -0.37765,-0.0475 -0.25791,0.26459 0.18486,0.48173 1.82783,0.58853 2.48823,0.16175 z m 0.41975,-1.65365 c 0.10869,-0.10914 -0.68543,-0.20784 -1.76471,-0.21933 -2.05655,-0.0219 -2.01064,-0.09 0.55121,-0.81818 l 1.19063,-0.33841 -1.5875,-0.14593 -1.5875,-0.14594 1.54097,-0.48043 c 1.77192,-0.55243 1.76207,-0.8185 -0.0282,-0.76223 l -1.24816,0.0392 1.25677,-0.56466 c 0.69122,-0.31056 1.25677,-0.67787 1.25677,-0.81624 0,-0.14732 -0.52082,-0.18196 -1.25677,-0.0836 l -1.25677,0.16801 1.12911,-0.67898 c 1.26892,-0.76304 1.26216,-1.22485 -0.0149,-1.01699 l -0.84963,0.1383 0.7276,-0.42 c 0.40018,-0.231 0.72761,-0.59705 0.72761,-0.81346 0,-0.29306 -0.18567,-0.35113 -0.72761,-0.22758 l -0.7276,0.16589 0.59531,-0.44043 c 0.32742,-0.24224 0.59531,-0.6203 0.59531,-0.84014 0,-0.29301 -0.15889,-0.35024 -0.59531,-0.21441 -0.57449,0.1788 -0.57912,0.16713 -0.13229,-0.33374 0.62775,-0.70366 0.58225,-1.13881 -0.11906,-1.13881 -0.45274,0 -0.51153,-0.0706 -0.26459,-0.3175 0.47357,-0.47357 0.40879,-1.36164 -0.0855,-1.17197 -0.32495,0.1247 -0.35067,0.0569 -0.13281,-0.35019 0.19965,-0.37306 0.17001,-0.60501 -0.11357,-0.88859 -0.21107,-0.21106 -0.30987,-0.45764 -0.21957,-0.54794 0.0903,-0.0903 0.041,-0.4319 -0.1095,-0.7591 -0.15053,-0.3272 -0.54427,-1.30929 -0.87497,-2.18242 -0.90314,-2.38445 -0.87366,-2.37385 -3.30595,-1.18782 -2.00049,0.97547 -1.76814,1.1411 0.49628,0.35375 1.75133,-0.60894 1.69001,-0.38718 -0.2317,0.83799 -1.01865,0.64942 -1.79255,1.18082 -1.71979,1.18087 0.0728,6e-5 0.71747,-0.17741 1.43268,-0.39437 0.71522,-0.21697 1.339,-0.35589 1.38617,-0.30871 0.0472,0.0472 -0.68682,0.66937 -1.63112,1.38266 -0.94429,0.71328 -1.7169,1.3268 -1.7169,1.36336 0,0.10236 1.23665,-0.3914 2.10532,-0.84061 1.34707,-0.6966 1.25181,-0.43533 -0.38553,1.05729 l -1.5875,1.4472 1.32292,-0.69962 1.32292,-0.69963 -1.44618,1.49497 c -1.4242,1.47226 -1.56743,1.97784 -0.27362,0.9658 1.0517,-0.82265 1.17065,-0.61483 0.28682,0.5011 -0.95848,1.21017 -1.01158,1.44872 -0.27013,1.2134 0.49833,-0.15817 0.5156,-0.12446 0.19843,0.38712 -0.28911,0.46632 -0.28622,0.59844 0.0172,0.78729 0.20055,0.12481 0.29356,0.34193 0.20669,0.48249 -0.1708,0.27636 2.0293,4.12784 3.60343,6.30813 l 0.97118,1.34515 1.573,-0.28682 c 0.86515,-0.15775 1.66193,-0.37611 1.77061,-0.48525 z m -5.64728,-18.8912 c 0.11025,-0.0681 0.20045,-0.2287 0.20045,-0.3568 0,-0.1281 -0.53578,-0.0504 -1.19062,0.17278 -0.65485,0.22313 -1.19063,0.46728 -1.19063,0.54255 0,0.14856 1.85332,-0.15614 2.1808,-0.35853 z m -0.3607,-1.2954 c 0.29239,-0.29239 -0.18922,-0.27337 -1.29093,0.051 l -1.19063,0.35051 1.18069,-0.14065 c 0.64938,-0.0774 1.23477,-0.19472 1.30087,-0.26082 z m 14.51792,25.09744 c -0.61423,-0.16051 -0.58668,-0.75957 0.18054,-3.92634 2.87945,-11.88509 9.43468,-22.78777 16.98075,-28.24246 1.69035,-1.22187 4.99665,-2.80712 6.29374,-3.0176 l 0.9808,-0.15917 -0.1571,1.42596 c -0.4119,3.73862 -1.17263,6.01124 -1.21322,3.62438 -0.0178,-1.04469 -0.0721,-0.94823 -0.64882,1.15282 -2.81512,10.25501 -7.86624,18.2112 -16.59565,26.14039 -3.1398,2.85198 -3.60246,3.1812 -4.4319,3.15371 -0.50936,-0.0169 -1.13448,-0.0851 -1.38914,-0.15169 z m 2.84427,-2.99261 c -0.0899,-0.14552 -0.30532,-0.26276 -0.47863,-0.26054 -0.18934,0.002 -0.15671,0.10643 0.0818,0.26054 0.50829,0.32848 0.59989,0.32848 0.39687,0 z m 1.45521,-0.49389 c 0,-0.12612 -0.59531,-0.47671 -1.32292,-0.77909 -1.67252,-0.69507 -1.70676,-0.52448 -0.0662,0.32954 1.47483,0.76772 1.38907,0.73997 1.38907,0.44955 z m 3.95245,-3.66941 c 3.50416,-3.60413 6.53359,-7.56353 8.42349,-11.00931 1.28171,-2.3369 3.76365,-8.25347 3.76365,-8.97199 0,-0.30691 -3.31984,-2.31374 -3.82756,-2.31374 -0.10582,0 0.38468,0.54011 1.08998,1.20024 l 1.28237,1.20023 -1.91823,-0.93898 c -1.05503,-0.51644 -1.91823,-0.8596 -1.91823,-0.76259 0,0.097 0.48194,0.58891 1.07098,1.0931 0.58904,0.5042 1.0176,0.97011 0.95235,1.03536 -0.0653,0.0653 -0.73762,-0.19503 -1.49416,-0.5784 -1.58694,-0.80416 -1.95206,-0.69575 -1.03733,0.30799 0.56687,0.62204 0.57965,0.67881 0.11128,0.4941 -1.51862,-0.59889 -2.24931,-0.3803 -1.31652,0.39384 0.56,0.46476 0.29308,0.63195 -0.40901,0.2562 -0.75668,-0.40496 -1.3019,0.0453 -0.79477,0.6564 0.29373,0.35391 0.25349,0.40152 -0.28902,0.34194 -0.50264,-0.0552 -0.62601,0.0513 -0.60925,0.52609 0.0143,0.40453 -0.13153,0.59531 -0.45496,0.59531 -0.29609,0 -0.9625,0.72495 -1.76335,1.91823 -1.66616,2.48263 -3.33381,5.48787 -3.05099,5.49815 0.12166,0.004 0.0129,0.12941 -0.24182,0.27773 -0.54096,0.31509 -0.6038,1.04808 -0.13229,1.54313 0.26982,0.28329 0.22109,0.31412 -0.26458,0.16738 -0.48009,-0.14505 -0.59531,-0.0765 -0.59531,0.35399 0,0.29362 0.20836,0.66635 0.46302,0.82828 0.38591,0.2454 0.34185,0.26878 -0.26459,0.1404 -0.91474,-0.19365 -0.99279,0.3987 -0.13229,1.00404 0.5866,0.41266 0.58273,0.41652 -0.26458,0.26379 -1.0704,-0.19296 -1.14158,0.26081 -0.13229,0.8434 l 0.7276,0.41999 -0.84964,-0.13829 c -1.18451,-0.19281 -1.32785,0.26096 -0.28793,0.91151 l 0.87299,0.54613 -0.99219,-0.17462 c -0.64529,-0.11357 -0.99219,-0.074 -0.99219,0.11308 0,0.15824 0.44649,0.52342 0.99219,0.81151 1.02331,0.54022 0.6235,0.74599 -0.56872,0.2927 -1.22682,-0.46643 -1.00897,0.21445 0.29464,0.92085 0.69645,0.3774 1.06636,0.62696 0.82204,0.55458 -0.95741,-0.28361 -2.3339,-0.47807 -2.3339,-0.32971 0,0.086 0.62508,0.52614 1.38907,0.97805 1.36055,0.80481 1.17319,0.89618 -0.6946,0.33875 -0.79529,-0.23734 -0.25249,0.37858 0.84403,0.95774 0.53628,0.28325 1.09411,0.52201 1.23963,0.53058 0.14552,0.009 1.62646,-1.38516 3.29099,-3.09716 z m 12.44791,-21.03827 c -0.002,-0.1819 -0.62718,-0.66163 -1.38907,-1.06607 l -1.38525,-0.73534 1.19063,1.06536 c 1.25437,1.12239 1.58994,1.27835 1.58369,0.73605 z m 0.26839,-1.22161 c 0,-0.12618 -0.50601,-0.54897 -1.12448,-0.93953 l -1.12448,-0.7101 1.05834,0.93559 c 1.16371,1.02875 1.19062,1.04489 1.19062,0.71404 z m 6.96906,23.674 c -2.50239,-0.80927 -3.80602,-2.60493 -3.77928,-5.20571 0.017,-1.64868 0.5541,-3.1369 1.73888,-4.81777 1.26878,-1.80002 2.53745,-2.64478 4.17605,-2.78067 1.27505,-0.10574 1.47734,-0.0421 2.37775,0.74852 1.454043,1.27666 2.078773,2.69021 2.216543,5.01522 0.14061,2.37305 -0.19597,3.77589 -1.257583,5.2414 -1.30895,1.80694 -3.36142,2.48169 -5.47236,1.79901 z m 2.76999,-0.68679 c 0.68025,-0.007 0.005,-0.53292 -0.69268,-0.53961 -0.3916,-0.004 -1.51526,-0.28058 -2.49703,-0.61516 -1.66281,-0.56667 -1.7536,-0.57358 -1.32588,-0.10095 0.83243,0.91982 2.59011,1.57976 3.64008,1.36671 0.29105,-0.0591 0.68502,-0.10901 0.87551,-0.11099 z m 2.01601,-1.47772 c 0.61571,-0.61571 0.50787,-0.90715 -0.33565,-0.90715 -1.02852,0 -4.55439,-0.92279 -6.04468,-1.58202 -1.37153,-0.60669 -1.53735,-0.56494 -1.31261,0.3305 0.18101,0.72122 1.95155,1.64812 4.17592,2.18615 1.95106,0.47192 3.02602,0.46352 3.51702,-0.0275 z m 1.161633,-2.97766 c 0.0669,-0.69743 -0.0253,-0.90859 -0.444713,-1.01826 -0.79441,-0.20775 -0.95346,-0.93413 -0.31733,-1.44924 0.861443,-0.69755 0.64225,-2.07657 -0.33007,-2.07657 -0.30483,0 -1.60582,-0.2579 -2.89109,-0.57311 -2.65491,-0.6511 -2.91022,-0.56274 -2.95313,1.02212 -0.0237,0.87561 -0.10944,1.00698 -0.66061,1.01223 -0.65834,0.006 -1.23101,0.95531 -0.97657,1.61839 0.37347,0.97323 4.70744,2.48157 6.90161,2.40194 l 1.5875,-0.0576 z m -3.553473,-1.74739 c -0.26344,-0.68651 0.1058,-1.25391 0.75591,-1.16159 0.43729,0.0621 0.5965,0.26125 0.5965,0.74616 0,0.48491 -0.15921,0.68407 -0.5965,0.74616 -0.35779,0.0508 -0.66029,-0.0815 -0.75591,-0.33073 z m -2.35481,-0.51724 c -0.66182,-0.48393 -0.40256,-1.3534 0.40355,-1.3534 0.51302,0 0.67554,0.15273 0.73829,0.6938 0.0946,0.81556 -0.47701,1.14574 -1.14184,0.6596 z m 4.30368,-3.6685 c -0.17118,-0.519 -1.31228,-1.00423 -2.18396,-0.92869 -1.11297,0.0965 -0.98768,0.52257 0.26458,0.89988 1.4094,0.42464 2.05313,0.43431 1.91938,0.0288 z m -61.180181,3.99166 c 2.87408,-2.28563 5.657234,-5.67138 7.923716,-9.63932 1.650975,-2.89037 1.499775,-2.12735 -0.286823,1.44741 -1.20736,2.41578 -1.88827,3.39861 -3.638021,5.25117 -1.977514,2.09371 -4.10755,3.77772 -4.778277,3.77772 -0.150187,0 0.200545,-0.37664 0.779405,-0.83698 z"
       id="path1" /></g></svg>
