<svg xmlns="http://www.w3.org/2000/svg" viewBox="0 0 491.87 497.74"><style>.prefix__st2{fill:#fff;stroke:#fff;stroke-width:12}.prefix__st3{fill:#bfbfbf}.prefix__st4{fill:#d51130}.prefix__st5{fill:#fff}.prefix__st6{fill:#b3b3b3}.prefix__st8{fill:#f08590}</style><g id="prefix__white_stuff"><path class="prefix__st2" d="M149.53 466.36c28.42 13.3 157.69 13.39 185.97.25 78.4-36.43 132.97-117.64 132.97-211.98 0-128.37-101.05-232.44-225.69-232.44S17.09 126.26 17.09 254.63c0 90.21 56.99 176.43 132.44 211.73z"/><path class="prefix__st2" d="M156.38 461.36c28.42 13.3 157.69 13.39 185.97.25 78.4-36.43 132.97-117.64 132.97-211.98 0-128.37-101.05-232.44-225.69-232.44S23.94 121.26 23.94 249.63c.01 94.12 54.33 175.18 132.44 211.73z"/><path class="prefix__st2" d="M437.42 477.58c9.35 0 17.01-6.48 17.01-14.4v-54.17c0-7.92-7.65-14.4-17.01-14.4H45.44c-9.35 0-17.01 6.48-16.01 13.4v54.17c-1 8.92 6.65 15.4 16.01 15.4h391.98z"/><path class="prefix__st2" d="M444.42 472.76c9.35 0 17.01-6.48 17.01-14.4v-54.17c0-7.92-7.65-14.4-17.01-14.4H52.44c-9.35 0-17.01 6.48-17.01 14.4v54.17c0 7.92 7.65 14.4 17.01 14.4h391.98z"/></g><g id="prefix__Layer_1"><path d="M437.42 477.58c9.35 0 17.01-6.48 17.01-14.4v-54.17c0-7.92-7.65-14.4-17.01-14.4H45.44c-9.35 0-17.01 6.48-16.01 13.4v54.17c-1 8.92 6.65 15.4 16.01 15.4h391.98z"/><path d="M149.53 466.36c28.42 13.3 157.69 13.39 185.97.25 78.4-36.43 132.97-117.64 132.97-211.98 0-128.37-101.05-232.44-225.69-232.44S17.09 126.26 17.09 254.63c0 90.21 56.99 176.43 132.44 211.73z"/><path class="prefix__st4" d="M444.42 472.76c9.35 0 17.01-6.48 17.01-14.4v-54.17c0-7.92-7.65-14.4-17.01-14.4H52.44c-9.35 0-17.01 6.48-17.01 14.4v54.17c0 7.92 7.65 14.4 17.01 14.4h391.98z"/><path class="prefix__st4" d="M156.38 461.36c28.42 13.3 157.69 13.39 185.97.25 78.4-36.43 132.97-117.64 132.97-211.98 0-128.37-101.05-232.44-225.69-232.44S23.94 121.26 23.94 249.63c.01 94.12 54.33 175.18 132.44 211.73z"/><path d="M354.73 154.04L321.11 283.6h-.82l-33.21-129.56H174.74V89.26H93.56v64.78H57.48v50.02h36.08v101.68c0 58.22 38.13 63.55 72.57 63.55 17.22 0 35.67-2.46 52.07-2.46v-61.5c-6.15.82-12.3 1.23-18.45 1.23-20.5 0-25.01-8.61-25.01-28.29v-74.21h43.03l53.32 162.77h95.94l70.52-212.79h-82.82zM86.96 427.12c-.25-2.4-1.12-4.34-2.74-5.6-1.5-1.26-3.62-1.94-6.24-1.94-9.48 0-10.86 7.54-10.86 14.74s1.37 14.63 10.86 14.63c5.37 0 9.11-4 9.61-8.69h23.58c-.15 1.01-.34 1.99-.58 2.94-3.54 14.27-16.74 22.2-33.12 22.2-19.47 0-35.06-12.34-35.06-31.08s15.6-31.2 35.06-31.2c16.97 0 31.45 7.66 32.95 24H86.96zM116.39 389.79h24.71v26.11h.25c4.24-4.16 9.73-7.18 20.21-7.18 11.61 0 22.21 5.93 22.21 18.3v37.03h-24.71v-28.29c0-6.24-.87-10.61-8.11-10.61-4.24 0-9.86 1.77-9.86 10.4v28.5h-24.71v-74.26zM266.39 404.61h24.71v59.31h-24.71v-59.31zm24.7-6.41h-24.71v-15.88h24.71v15.88zM224.84 419.57c-9.36 0-10.61 8.34-10.61 14.63 0 6.29 1.25 14.74 10.61 14.74s10.61-8.46 10.61-14.74c-.01-6.28-1.26-14.63-10.61-14.63zm0 45.83c-24.33 0-35.31-14.74-35.31-31.2s10.98-31.08 35.31-31.08c24.33 0 35.31 14.63 35.31 31.08 0 16.46-10.98 31.2-35.31 31.2zM340.75 427.12c-.25-2.4-1.12-4.34-2.74-5.6-1.5-1.26-3.62-1.94-6.24-1.94-9.48 0-10.86 7.54-10.86 14.74s1.37 14.63 10.86 14.63c5.37 0 9.11-4 9.61-8.69h23.58c-2.37 16.12-16.22 25.14-33.69 25.14-19.47 0-35.07-12.34-35.07-31.08s15.6-31.2 35.07-31.2c16.97 0 31.45 7.66 32.94 24h-23.46zM418.74 427.57c0-5.49-4.49-9.94-10.86-9.94-7.36 0-11.6 3.54-12.73 9.94h23.59zm-23.71 11.78c.62 6.74 4.87 11.54 12.6 11.54 3.99 0 8.36-1.37 10.36-4.23h23.08c-4.99 12.8-18.59 18.74-33.32 18.74-20.71 0-36.31-11.2-36.31-30.97 0-17.25 13.73-31.31 34.19-31.31 25.71 0 36.81 13.14 36.81 36.23h-47.41z"/><path class="prefix__st5" d="M359.55 148.4l-33.62 129.56h-.82L291.9 148.4H179.56V83.62H98.39v64.78H62.31v50.02h36.08V300.1c0 58.22 38.13 63.55 72.57 63.55 17.22 0 35.67-2.46 52.07-2.46v-61.5c-6.15.82-12.3 1.23-18.45 1.23-20.5 0-25.01-8.61-25.01-28.29v-74.21h43.03l53.32 162.77h95.94l70.52-212.79h-82.83zM91.78 420.91c-.25-2.4-1.12-4.34-2.75-5.6-1.5-1.26-3.62-1.94-6.24-1.94-9.48 0-10.86 7.54-10.86 14.74s1.37 14.63 10.86 14.63c5.37 0 9.11-4 9.61-8.68h23.58c-.15 1.01-.34 1.99-.58 2.94-3.54 14.27-16.74 22.2-33.12 22.2-19.47 0-35.06-12.34-35.06-31.08s15.6-31.2 35.06-31.2c16.97 0 31.45 7.66 32.94 24H91.78zM121.22 376.11h24.71v28.69h.25c4.24-4.57 9.73-7.89 20.21-7.89 11.61 0 22.21 6.51 22.21 20.11v40.68h-24.7v-31.08c0-6.86-.87-11.66-8.11-11.66-4.24 0-9.86 1.94-9.86 11.43v31.31h-24.71v-81.59zM271.21 398.4h24.71v59.31h-24.71V398.4zm24.71-6.4h-24.71v-15.88h24.71V392zM229.66 413.37c-9.36 0-10.61 8.34-10.61 14.63 0 6.29 1.25 14.74 10.61 14.74s10.61-8.45 10.61-14.74c0-6.29-1.25-14.63-10.61-14.63zm0 45.83c-24.33 0-35.31-14.74-35.31-31.2s10.98-31.08 35.31-31.08 35.31 14.63 35.31 31.08c.01 16.45-10.97 31.2-35.31 31.2zM345.58 420.91c-.25-2.4-1.12-4.34-2.74-5.6-1.5-1.26-3.62-1.94-6.24-1.94-9.48 0-10.86 7.54-10.86 14.74s1.37 14.63 10.86 14.63c5.37 0 9.11-4 9.61-8.68h23.58c-2.37 16.11-16.22 25.14-33.69 25.14-19.47 0-35.07-12.34-35.07-31.08s15.6-31.2 35.07-31.2c16.97 0 31.45 7.66 32.94 24h-23.46zM423.57 421.37c0-5.49-4.49-9.94-10.86-9.94-7.36 0-11.6 3.54-12.73 9.94h23.59zm-23.71 11.77c.62 6.74 4.87 11.54 12.6 11.54 3.99 0 8.36-1.37 10.36-4.23h23.09c-4.99 12.8-18.59 18.74-33.32 18.74-20.71 0-36.31-11.2-36.31-30.97 0-17.26 13.73-31.31 34.19-31.31 25.71 0 36.81 13.14 36.81 36.23h-47.42z"/><path class="prefix__st6" d="M98.39 83.62l7.85 5.35v66.15l-7.85-6.72z"/><path fill="gray" d="M62.31 148.4l5 6.72"/><path class="prefix__st6" d="M62.31 148.4l7.85 4.55v45.4l-7.85.07z"/><path class="prefix__st3" d="M98.39 203.18l7.85-12.72v128.03L98.64 308z"/><path class="prefix__st6" d="M62.31 198.6l4.55-8.14h39.38v7.89zM179.51 198.41l4.46-7.88 44.46.03-4.52 7.88z"/><path class="prefix__st6" d="M220.23 190.48l8.2.08 56.72 170.64-9.24-.01z"/><path class="prefix__st6" d="M275.94 361.2l6.33-8.14 83.72.03 5.86 8.1zM359.55 148.4l6.58 7.49-34.71 132.06-5.49-9.99zM98.39 198.42V300.1c0 58.22 38.13 63.55 72.57 63.55 17.22 0 33.01 0 52.07-2.46l-7.04-7.1c-8.42 1.19-54.58 8.01-87.31-5.91-26.67-11.34-22.44-55.88-22.44-75.55v-74.21h-7.85zM62.43 401.97c-4.76 3.79-12.64 13.77-12.47 26.08.12 8.9 4.36 16.72 11.34 21.86 19.82 14.59 44.14 2.35 44.14 2.35s-6.76 6.93-23.14 6.93c-20.49 0-34.74-12.35-35.06-31.08-.32-18.47 15.19-26.14 15.19-26.14z"/><path class="prefix__st6" d="M73.51 418.63s2.3-8.05 9.1-8.05c10.04 0 11.24 7.68 11.24 7.68l17.69-.04 3.7 2.68H91.78s-.08-7.2-8.54-7.53c-7.64-.29-9.73 5.26-9.73 5.26zM121.22 376.09l3 2.66v76.64h18.62l3.09 3.01h-24.71zM147.69 418.98s1.04-6.38 7.23-6.38c5.73 0 11.14 1.54 11.28 10.85.08 5.66.05 31.31.05 31.31h19.38l2.98 2.95H163.9l-.02-32.64s.78-11-8.97-10.08c-5.54.53-7.22 3.99-7.22 3.99zM316.16 401.97c-4.76 3.79-12.64 13.77-12.47 26.08.12 8.9 4.36 16.72 11.34 21.86 19.82 14.59 44.14 2.35 44.14 2.35s-6.76 6.93-23.14 6.93c-20.48 0-34.74-12.35-35.06-31.08-.32-18.47 15.19-26.14 15.19-26.14z"/><path class="prefix__st6" d="M327.25 418.63s2.3-8.05 9.1-8.05c10.04 0 11.24 7.68 11.24 7.68l17.69-.04 3.7 2.68h-23.46s-.08-7.2-8.54-7.53c-7.65-.29-9.73 5.26-9.73 5.26zM392.85 401.02c-4.76 3.79-14.02 14.73-13.85 27.04.12 8.9 3.87 16.73 10.78 21.98 17.98 13.67 44.7 3.69 44.7 3.69s-6.76 5.46-23.14 5.46c-20.48 0-35.06-11.43-35.06-31.08-.01-19.39 16.57-27.09 16.57-27.09zM404.05 413.97s2.21-5.15 10.49-5.14c11.41.01 12.02 12.63 12.02 12.63l-3.21-.11s0-9.45-9.74-9.79c-7.25-.25-9.56 2.41-9.56 2.41z"/><path class="prefix__st6" d="M402.21 430.28l-2.35 2.76h47.42l-3.84-2.76zM271.21 398.4l3.03 3.02v53.16l18.65.11 3.03 3.02h-24.71zM271.21 376.11l2.34 3.02v9.84l18.65.11 3.72 3.02h-24.71zM206.53 403.25s-12.76 6.99-12.18 27.33c.58 20.35 20.15 28.61 32.55 28.61 22.36 0 29-8.91 29-8.91s-13.34 7.36-28.83 5.83c-17.98-1.77-28.7-11.75-29.35-25.54-1.01-21.27 8.81-27.32 8.81-27.32z"/><path class="prefix__st6" d="M221.4 417.38s2.32-6 9.17-6c5.45 0 12.06 2.72 12.06 15.01s-7.48 15-7.48 15 4.9-1.33 5.13-13.4c.26-13.54-7.81-14.58-10.61-14.63-6.56-.1-8.27 4.02-8.27 4.02z"/><path class="prefix__st8" d="M300.57 23.92s169.8 30.16 174.75 223.38c2.18 85.19-43.27 139.22-43.27 139.22s41.53-52.67 40.59-139.1C470.6 60.13 300.57 23.92 300.57 23.92zM459.57 397.67l.65 1.13.62 1.67.35 1.36.19 1.68.04 53.04s.98 7.4-5 11.83c-6.68 4.95-12.01 4.2-12.01 4.2l-392.7.04 1.4-1.14s385.83.42 392 0c6.17-.43 9.4-3.39 11.32-5.18 3.75-3.52 3.19-9.65 3.19-9.65l-.05-58.98z"/></g></svg>