<svg xmlns="http://www.w3.org/2000/svg" viewBox="0 0 92.604 92.604" height="350" width="350"><defs><clipPath id="prefix__a"><path d="M286.727 273.902h55.984v55.985h-55.984zm0 0"/></clipPath></defs><g clip-path="url(#prefix__a)" transform="matrix(1.65422 0 0 1.65422 -474.31 -453.095)"><path d="M314.715 328.902c-14.914 0-27.008-12.093-27.008-27.011 0-14.914 12.094-27.008 27.008-27.008 14.918 0 27.012 12.094 27.012 27.008 0 14.918-12.094 27.011-27.012 27.011m0-55c-15.457 0-27.992 12.532-27.992 27.989 0 15.46 12.535 27.992 27.992 27.992 15.46 0 27.992-12.531 27.992-27.992 0-15.457-12.531-27.989-27.992-27.989"/></g><path d="M46.299 86.918c-22.43 0-40.613-18.184-40.613-40.613C5.686 23.87 23.87 5.686 46.3 5.686c22.435 0 40.619 18.184 40.619 40.62 0 22.428-18.184 40.612-40.62 40.612m0-85.296c-24.67 0-44.676 20.006-44.676 44.683 0 24.671 20.006 44.677 44.677 44.677 24.677 0 44.683-20.006 44.683-44.677 0-24.677-20.006-44.683-44.683-44.683" fill="#fff"/><path d="M46.299 5.686C23.869 5.686 5.686 23.87 5.686 46.3c0 22.435 18.184 40.619 40.613 40.619 22.435 0 40.619-18.184 40.619-40.62 0-22.428-18.184-40.612-40.62-40.612" fill="#ee7817"/><path d="M37.252 29.543V62.04h-5.919V43.456c0-3.083 0-3.994-2.649-3.994h-5.299v-3.709h.627c3.037-.051 7.127-.097 8.433-6.21zm0 0M64.696 57.038v5.008H42.59v-4.672c4.142-2.843 8.239-6.746 10.164-8.717 1.777-1.828 4.763-4.956 4.763-9.246 0-2.501-1.248-4.86-4.285-4.86-4.768 0-4.62 5.196-4.575 7.509l-6.067-.53c0-4.575 1.492-7.509 2.746-9.001 1.784-2.074 4.866-3.515 8.381-3.515 6.158 0 10.449 3.993 10.449 10.157 0 5.247-3.225 9.008-6.792 12.233-.723.626-5.053 4.284-6.888 5.634zm0 0" fill="#fff"/></svg>