<svg xmlns="http://www.w3.org/2000/svg" viewBox="0 0 92.604 92.598" height="349.976" width="350"><defs><clipPath id="prefix__a"><path d="M208.063 273.902h55.984v55.985h-55.985zm0 0"/></clipPath></defs><g clip-path="url(#prefix__a)" transform="matrix(1.6541 0 0 1.6541 -344.158 -453.064)"><path d="M236.055 328.902c-14.918 0-27.008-12.093-27.008-27.011 0-14.914 12.09-27.008 27.008-27.008s27.011 12.094 27.011 27.008c0 14.918-12.093 27.011-27.011 27.011m0-55c-15.461 0-27.992 12.532-27.992 27.989 0 15.46 12.53 27.992 27.992 27.992 15.46 0 27.992-12.531 27.992-27.992 0-15.457-12.531-27.989-27.992-27.989"/></g><path d="M46.302 86.912c-22.434 0-40.616-18.183-40.616-40.61 0-22.434 18.182-40.616 40.616-40.616s40.616 18.182 40.616 40.616c0 22.427-18.182 40.61-40.616 40.61m0-85.29c-24.676 0-44.674 20.004-44.674 44.68 0 24.67 19.998 44.674 44.674 44.674s44.68-20.004 44.68-44.674c0-24.676-20.004-44.68-44.68-44.68" fill="#fff"/><path d="M46.302 5.686c-22.434 0-40.616 18.182-40.616 40.61 0 22.433 18.182 40.616 40.616 40.616s40.616-18.183 40.616-40.616c0-22.428-18.182-40.61-40.616-40.61" fill="#ee7817"/><path d="M23.325 29.541v32.495h-5.918V43.453c0-3.082 0-3.993-2.656-3.993H9.46v-3.71h.627c3.03-.05 7.127-.096 8.426-6.209zm0 0M50.76 57.034v5.008H28.663V57.37c4.141-2.843 8.231-6.739 10.157-8.716 1.783-1.829 4.768-4.962 4.768-9.246 0-2.5-1.253-4.86-4.284-4.86-4.768 0-4.626 5.196-4.574 7.509l-6.067-.53c0-4.574 1.492-7.508 2.746-9.007 1.777-2.068 4.859-3.508 8.374-3.508 6.164 0 10.448 3.993 10.448 10.157 0 5.246-3.225 9-6.785 12.231-.724.627-5.06 4.284-6.888 5.634zm0 0M73.227 55.71H61.073l-1.88 6.332h-6.468l10.92-32.371h6.874l11.05 32.371H75.1zm-1.61-5.273l-4.445-14.9-4.49 14.9zm0 0" fill="#fff"/></svg>