<svg xmlns="http://www.w3.org/2000/svg" viewBox="0 0 92.604 92.598" height="349.976" width="350"><defs><clipPath id="prefix__a"><path d="M365.387 273.902h55.984v55.985h-55.984zm0 0"/></clipPath></defs><g clip-path="url(#prefix__a)" transform="matrix(1.6541 0 0 1.6541 -604.389 -453.064)"><path d="M393.379 328.902c-14.918 0-27.012-12.093-27.012-27.011 0-14.914 12.094-27.008 27.012-27.008 14.914 0 27.008 12.094 27.008 27.008 0 14.918-12.094 27.011-27.008 27.011m0-55c-15.461 0-27.992 12.532-27.992 27.989 0 15.46 12.531 27.992 27.992 27.992 15.46 0 27.992-12.531 27.992-27.992 0-15.457-12.531-27.989-27.992-27.989"/></g><path d="M46.302 86.912c-22.434 0-40.616-18.183-40.616-40.61 0-22.434 18.182-40.616 40.616-40.616 22.427 0 40.616 18.182 40.616 40.616 0 22.427-18.189 40.61-40.616 40.61m0-85.29c-24.676 0-44.68 20.004-44.68 44.68 0 24.67 20.004 44.674 44.68 44.674 24.67 0 44.674-20.004 44.674-44.674 0-24.676-20.004-44.68-44.674-44.68" fill="#fff"/><path d="M46.302 5.686c-22.434 0-40.616 18.182-40.616 40.61 0 22.433 18.182 40.616 40.616 40.616 22.427 0 40.616-18.183 40.616-40.616 0-22.428-18.189-40.61-40.616-40.61" fill="#eb5791"/><path d="M37.25 29.535v32.5h-5.925V43.454c0-3.082 0-3.993-2.65-3.993h-5.291v-3.71h.62c3.037-.05 7.127-.096 8.432-6.215zm0 0M62.468 34.885H49.804L48.7 42.057c1.441-1.447 3.754-2.41 6.261-2.41 5.777 0 9.867 4.29 9.867 10.836 0 6.694-4.381 11.992-12.083 11.992-2.165 0-4.284-.388-6.164-1.35-4.53-2.41-4.865-6.598-5.008-8.187l6.74-.485c.148 3.328 2.216 4.82 4.671 4.82 1.111 0 2.068-.239 2.843-.768 1.441-.97 2.455-3.231 2.455-5.783 0-4.045-2.507-6.113-5.395-6.113-2.216 0-4.09 1.008-4.865 3.03l-5.434-.335 2.307-17.866h18.059zm0 0" fill="#fff"/></svg>