<svg xmlns="http://www.w3.org/2000/svg" viewBox="0 0 92.604 92.604" height="350" width="350"><defs><clipPath id="prefix__a"><path d="M444.047 273.898h55.984v55.985h-55.984zm0 0"/></clipPath></defs><g clip-path="url(#prefix__a)" transform="matrix(1.6541 0 0 1.6541 -734.501 -453.057)"><path d="M472.04 328.898c-14.919 0-27.009-12.093-27.009-27.007 0-14.918 12.09-27.012 27.008-27.012s27.012 12.094 27.012 27.012c0 14.914-12.094 27.007-27.012 27.007m0-55c-15.46 0-27.992 12.532-27.992 27.993 0 15.457 12.531 27.992 27.992 27.992s27.992-12.535 27.992-27.992c0-15.461-12.531-27.993-27.992-27.993"/></g><path d="M46.302 86.918c-22.434 0-40.616-18.189-40.616-40.616 0-22.434 18.182-40.616 40.616-40.616s40.616 18.182 40.616 40.616c0 22.427-18.182 40.616-40.616 40.616m0-85.296c-24.676 0-44.674 20.004-44.674 44.68s19.998 44.674 44.674 44.674 44.68-19.998 44.68-44.674-20.004-44.68-44.68-44.68" fill="#fff"/><path d="M46.302 5.686c-22.434 0-40.616 18.182-40.616 40.616 0 22.427 18.182 40.616 40.616 40.616S86.918 68.73 86.918 46.302c0-22.434-18.182-40.616-40.616-40.616" fill="#d70723"/><path d="M37.25 29.541v32.5H31.33V43.454c0-3.082 0-3.993-2.655-3.993h-5.292v-3.71h.626c3.03-.045 7.127-.096 8.426-6.209zm0 0M65.408 52.699c0 5.925-5.104 9.776-12.18 9.776-7.417 0-11.992-4.142-11.992-9.776 0-5.105 3.71-6.888 5.344-7.657-3.463-1.635-4.187-5.15-4.187-7.075 0-5.053 4.187-8.956 11.172-8.956 6.694 0 11.074 3.612 11.074 9.24 0 2.843-1.156 5.299-4.238 6.791 3.754 1.88 5.007 4.672 5.007 7.657m-17.38-.194c0 2.746 1.925 4.626 5.485 4.626 3.134 0 5.447-1.64 5.447-4.671 0-.582-.097-4.627-5.447-4.627-5.15 0-5.486 3.664-5.486 4.672m.53-13.814c0 1.44.627 4.283 5.008 4.283 3.805 0 4.768-2.455 4.768-4.283 0-3.71-2.94-4.381-4.82-4.381-4.09-.052-4.956 2.597-4.956 4.38" fill="#fff"/></svg>