<svg xmlns="http://www.w3.org/2000/svg" viewBox="0 0 92.604 82.496" height="311.795" width="350"><defs><clipPath id="prefix__a"><path d="M126.754 273.902h62.84v55.985h-62.84zm0 0"/></clipPath></defs><g clip-path="url(#prefix__a)" transform="matrix(1.47365 0 0 1.47365 -186.791 -403.637)"><path d="M187.945 326.453a4.844 4.844 0 01-4.242 2.45h-51.058a4.85 4.85 0 01-4.247-2.45 4.868 4.868 0 010-4.902l25.532-44.219a4.849 4.849 0 014.242-2.45 4.85 4.85 0 014.246 2.45l25.527 44.219a4.85 4.85 0 010 4.902m.852-5.394l-25.527-44.215a5.825 5.825 0 00-5.098-2.942 5.823 5.823 0 00-5.094 2.938l-25.531 44.219a5.818 5.818 0 00.004 5.882 5.819 5.819 0 005.094 2.942h51.058a5.819 5.819 0 005.094-2.942 5.827 5.827 0 000-5.882"/></g><path d="M83.923 77.43H8.681c-2.775 0-4.508-2.999-3.12-5.405L43.179 6.867a3.567 3.567 0 013.12-1.801c1.215 0 2.43.598 3.126 1.801l37.618 65.158c1.388 2.406-.345 5.405-3.12 5.405m6.252-7.213L52.556 5.054a7.148 7.148 0 00-6.257-3.61 7.154 7.154 0 00-6.257 3.61L2.423 70.217a7.133 7.133 0 00.006 7.225c1.301 2.262 3.644 3.609 6.252 3.609h75.243a7.145 7.145 0 006.251-3.61 7.147 7.147 0 000-7.224" fill="#fff"/><path d="M49.425 6.867a3.576 3.576 0 00-3.126-1.801 3.574 3.574 0 00-3.12 1.801L5.561 72.025c-1.388 2.406.345 5.405 3.12 5.405h75.242c2.775 0 4.508-2.999 3.12-5.405zm0 0" fill="#fab800"/><path d="M24.517 42.586h9.28c1.519 0 3.12 0 4.72.432 2.688.743 6.47 3.16 6.47 8.733 0 3.666-1.716 7.604-6.626 8.698-1.525.35-2.965.35-4.645.35h-4.013v9.32h-5.186zm5.186 4.41v9.555h3.702c1.093 0 2.026 0 2.924-.236 3.2-.782 3.39-3.707 3.39-4.68 0-2.026-.892-3.08-1.358-3.511-1.29-1.088-3.085-1.128-4.76-1.128zm0 0M71.248 55.066V70.12h-4.41v-2.342c-2.452 2.417-5.22 3.045-7.523 3.045-8.497 0-12.981-6.787-12.981-14.196 0-8.657 5.727-14.736 13.291-14.736 5.734 0 9.948 3.505 11.623 8.11l-4.916 1.987c-.507-1.52-1.986-5.458-6.666-5.458-5.187 0-7.72 4.52-7.72 9.942 0 6.044 3.316 9.515 7.795 9.515 2.89 0 6.32-1.52 6.786-6.395h-6.861v-4.525zm0 0" fill="#fff"/></svg>