<svg xmlns="http://www.w3.org/2000/svg" viewBox="0 0 92.604 82.491" height="311.776" width="350"><defs><clipPath id="prefix__a"><path d="M42.52 273.902h62.843v55.985H42.52zm0 0"/></clipPath></defs><g clip-path="url(#prefix__a)" transform="translate(-62.655 -403.612) scale(1.47356)"><path d="M103.715 326.453a4.85 4.85 0 01-4.246 2.45H48.414a4.85 4.85 0 01-4.246-2.45 4.85 4.85 0 010-4.902l25.527-44.219a4.85 4.85 0 014.246-2.45 4.85 4.85 0 014.246 2.45l25.528 44.219a4.85 4.85 0 010 4.902m.851-5.394l-25.53-44.215a5.814 5.814 0 00-5.095-2.942 5.823 5.823 0 00-5.093 2.938l-25.532 44.219a5.827 5.827 0 000 5.882 5.825 5.825 0 005.098 2.942H99.47a5.825 5.825 0 005.097-2.942 5.827 5.827 0 000-5.882"/></g><path d="M83.918 77.425H8.686c-2.774 0-4.513-2.999-3.126-5.405L43.182 6.867a3.56 3.56 0 013.12-1.802 3.56 3.56 0 013.12 1.802L87.038 72.02c1.393 2.406-.345 5.405-3.12 5.405m6.257-7.212L52.56 5.053a7.147 7.147 0 00-6.257-3.608 7.147 7.147 0 00-6.257 3.609L2.43 70.213a7.146 7.146 0 000 7.224 7.147 7.147 0 006.257 3.609h75.232a7.147 7.147 0 006.257-3.61 7.146 7.146 0 000-7.223" fill="#fff"/><path d="M49.422 6.867a3.56 3.56 0 00-3.12-1.802 3.56 3.56 0 00-3.12 1.802L5.56 72.02c-1.387 2.406.352 5.405 3.126 5.405h75.232c2.775 0 4.513-2.999 3.12-5.405zm0 0" fill="#2ea635"/><path d="M57.924 39.746v18.172c-.04 3.27-.04 5.969-3.109 8.582-2.935 2.573-6.734 2.815-8.697 2.815-1.756 0-3.471-.201-5.106-.777-3.43-1.18-5.272-3.672-5.923-5.837-.368-1.266-.368-2.164-.408-5.762V39.746h5.393v17.723c0 1.226-.04 2.412.368 3.517 1.1 2.774 4.127 3.102 5.837 3.102.863 0 3.028-.04 4.616-1.427 1.595-1.433 1.595-3.068 1.595-5.474V39.746zm0 0" fill="#fff"/></svg>